ComicNeue-Angular_Bold_Oblique.ufo
<glyph name="quotedbl" format="1">
  <advance width="338"/>
  <unicode hex="0022"/>
  <outline>
    <contour>
      <point x="179" y="467" type="line"/>
      <point x="224" y="678" type="line"/>
      <point x="125" y="660" type="line"/>
      <point x="80" y="450" type="line"/>
    </contour>
    <contour>
      <point x="328" y="467" type="line"/>
      <point x="373" y="678" type="line"/>
      <point x="274" y="660" type="line"/>
      <point x="229" y="450" type="line"/>
    </contour>
  </outline>
</glyph>
<glyph name="ampersand" format="1">
  <advance width="688"/>
  <unicode hex="0026"/>
  <outline>
    <contour>
      <point x="484" y="170" type="curve"/>
      <point x="557" y="51" type="line"/>
      <point x="473" y="-9" type="line"/>
      <point x="413" y="86" type="line"/>
      <point x="348" y="24"/>
      <point x="266" y="-4"/>
      <point x="212" y="-4" type="curve" smooth="yes"/>
      <point x="124" y="-4"/>
      <point x="41" y="54"/>
      <point x="41" y="149" type="curve" smooth="yes"/>
      <point x="41" y="275"/>
      <point x="141" y="343"/>
      <point x="222" y="385" type="curve"/>
      <point x="207" y="412"/>
      <point x="192" y="449"/>
      <point x="192" y="489" type="curve" smooth="yes"/>
      <point x="192" y="581"/>
      <point x="290" y="673"/>
      <point x="384" y="673" type="curve" smooth="yes"/>
      <point x="456" y="673"/>
      <point x="511" y="615"/>
      <point x="511" y="549" type="curve" smooth="yes"/>
      <point x="511" y="441"/>
      <point x="420" y="391"/>
      <point x="365" y="359" type="curve"/>
      <point x="432" y="252" type="line"/>
      <point x="448" y="282"/>
      <point x="466" y="321"/>
      <point x="488" y="376" type="curve"/>
      <point x="547" y="286" type="line"/>
      <point x="524" y="236"/>
      <point x="503" y="198"/>
    </contour>
    <contour>
      <point x="364" y="579" type="curve" smooth="yes"/>
      <point x="331" y="579"/>
      <point x="289" y="548"/>
      <point x="289" y="508" type="curve" smooth="yes"/>
      <point x="289" y="481"/>
      <point x="303" y="451"/>
      <point x="318" y="430" type="curve"/>
      <point x="406" y="473"/>
      <point x="416" y="504"/>
      <point x="416" y="532" type="curve" smooth="yes"/>
      <point x="416" y="556"/>
      <point x="392" y="579"/>
    </contour>
    <contour>
      <point x="232" y="91" type="curve" smooth="yes"/>
      <point x="265" y="91"/>
      <point x="322" y="115"/>
      <point x="366" y="160" type="curve"/>
      <point x="272" y="312" type="line"/>
      <point x="206" y="280"/>
      <point x="137" y="237"/>
      <point x="137" y="169" type="curve" smooth="yes"/>
      <point x="137" y="115"/>
      <point x="191" y="91"/>
    </contour>
  </outline>
</glyph>
<glyph name="parenright" format="1">
  <advance width="403"/>
  <unicode hex="0029"/>
  <outline>
    <contour>
      <point x="168" y="724" type="curve"/>
      <point x="248" y="792" type="line"/>
      <point x="325" y="700"/>
      <point x="361" y="570"/>
      <point x="361" y="448" type="curve" smooth="yes"/>
      <point x="361" y="252"/>
      <point x="238" y="30"/>
      <point x="32" y="-116" type="curve"/>
      <point x="-9" y="-42" type="line"/>
      <point x="147" y="72"/>
      <point x="264" y="251"/>
      <point x="264" y="429" type="curve" smooth="yes"/>
      <point x="264" y="539"/>
      <point x="228" y="652"/>
    </contour>
  </outline>
</glyph>
<glyph name="asterisk" format="1">
  <advance width="443"/>
  <unicode hex="002A"/>
  <outline>
    <contour>
      <point x="342" y="514" type="line"/>
      <point x="409" y="534" type="line"/>
      <point x="400" y="626" type="line"/>
      <point x="330" y="605" type="line"/>
      <point x="345" y="673" type="line"/>
      <point x="250" y="673" type="line"/>
      <point x="235" y="605" type="line"/>
      <point x="175" y="626" type="line"/>
      <point x="125" y="535" type="line"/>
      <point x="186" y="514" type="line"/>
      <point x="134" y="460" type="line"/>
      <point x="199" y="404" type="line"/>
      <point x="251" y="459" type="line"/>
      <point x="279" y="404" type="line"/>
      <point x="369" y="460" type="line"/>
    </contour>
  </outline>
</glyph>
<glyph name="comma" format="1">
  <advance width="343"/>
  <unicode hex="002C"/>
  <outline>
    <contour>
      <point x="135" y="125" type="line"/>
      <point x="30" y="37" type="line"/>
      <point x="67" y="14" type="line"/>
      <point x="0" y="-73" type="line"/>
      <point x="75" y="-121" type="line"/>
      <point x="222" y="69" type="line"/>
    </contour>
  </outline>
</glyph>
<glyph name="hyphen" format="1">
  <advance width="468"/>
  <unicode hex="002D"/>
  <outline>
    <contour>
      <point x="360" y="203" type="line"/>
      <point x="48" y="203" type="line"/>
      <point x="85" y="297" type="line"/>
      <point x="398" y="297" type="line"/>
    </contour>
  </outline>
</glyph>
<glyph name="period" format="1">
  <advance width="248"/>
  <unicode hex="002E"/>
  <outline>
    <contour>
      <point x="154" y="133" type="line"/>
      <point x="38" y="118" type="line"/>
      <point x="-2" y="-4" type="line"/>
      <point x="116" y="12" type="line"/>
    </contour>
  </outline>
</glyph>
<glyph name="slash" format="1">
  <advance width="518"/>
  <unicode hex="002F"/>
  <outline>
    <contour>
      <point x="469" y="675" type="line"/>
      <point x="-44" y="0" type="line"/>
      <point x="63" y="0" type="line"/>
      <point x="576" y="675" type="line"/>
    </contour>
  </outline>
</glyph>
<glyph name="zero" format="1">
  <advance width="640"/>
  <unicode hex="0030"/>
  <outline>
    <contour>
      <point x="240" y="-3" type="curve" smooth="yes"/>
      <point x="400" y="-3"/>
      <point x="573" y="219"/>
      <point x="573" y="443" type="curve" smooth="yes"/>
      <point x="573" y="571"/>
      <point x="512" y="669"/>
      <point x="404" y="669" type="curve" smooth="yes"/>
      <point x="242" y="669"/>
      <point x="69" y="444"/>
      <point x="69" y="225" type="curve" smooth="yes"/>
      <point x="69" y="96"/>
      <point x="131" y="-3"/>
    </contour>
    <contour>
      <point x="384" y="574" type="curve" smooth="yes"/>
      <point x="444" y="574"/>
      <point x="478" y="509"/>
      <point x="478" y="423" type="curve" smooth="yes"/>
      <point x="478" y="254"/>
      <point x="357" y="93"/>
      <point x="260" y="93" type="curve" smooth="yes"/>
      <point x="198" y="93"/>
      <point x="165" y="159"/>
      <point x="165" y="243" type="curve" smooth="yes"/>
      <point x="165" y="413"/>
      <point x="287" y="574"/>
    </contour>
  </outline>
</glyph>
<glyph name="one" format="1">
  <advance width="440"/>
  <unicode hex="0031"/>
  <outline>
    <contour>
      <point x="237" y="95" type="line"/>
      <point x="331" y="95" type="line"/>
      <point x="294" y="0" type="line"/>
      <point x="8" y="0" type="line"/>
      <point x="44" y="95" type="line"/>
      <point x="143" y="95" type="line"/>
      <point x="231" y="479" type="line"/>
      <point x="141" y="411" type="line"/>
      <point x="92" y="481" type="line"/>
      <point x="374" y="694" type="line"/>
    </contour>
  </outline>
</glyph>
<glyph name="two" format="1">
  <advance width="550"/>
  <unicode hex="0032"/>
  <outline>
    <contour>
      <point x="124" y="95" type="line"/>
      <point x="149" y="169"/>
      <point x="197" y="204"/>
      <point x="278" y="251" type="curve" smooth="yes"/>
      <point x="391" y="317"/>
      <point x="512" y="404"/>
      <point x="512" y="523" type="curve" smooth="yes"/>
      <point x="512" y="586"/>
      <point x="475" y="658"/>
      <point x="350" y="658" type="curve" smooth="yes"/>
      <point x="241" y="658"/>
      <point x="148" y="574"/>
      <point x="112" y="537" type="curve"/>
      <point x="161" y="461" type="line"/>
      <point x="172" y="475"/>
      <point x="253" y="564"/>
      <point x="330" y="564" type="curve" smooth="yes"/>
      <point x="366" y="564"/>
      <point x="415" y="547"/>
      <point x="415" y="502" type="curve" smooth="yes"/>
      <point x="415" y="452"/>
      <point x="363" y="401"/>
      <point x="243" y="330" type="curve" smooth="yes"/>
      <point x="118" y="256"/>
      <point x="44" y="196"/>
      <point x="15" y="47" type="curve" smooth="yes"/>
      <point x="6" y="0" type="line"/>
      <point x="401" y="0" type="line"/>
      <point x="438" y="95" type="line"/>
    </contour>
  </outline>
</glyph>
<glyph name="four" format="1">
  <advance width="544"/>
  <unicode hex="0034"/>
  <outline>
    <contour>
      <point x="354" y="13" type="line"/>
      <point x="384" y="151" type="line"/>
      <point x="430" y="150" type="line"/>
      <point x="468" y="243" type="line"/>
      <point x="403" y="243" type="line"/>
      <point x="504" y="716" type="line"/>
      <point x="-6" y="158" type="line"/>
      <point x="291" y="152" type="line"/>
      <point x="257" y="-5" type="line"/>
    </contour>
    <contour>
      <point x="186" y="246" type="line"/>
      <point x="349" y="424" type="line"/>
      <point x="311" y="246" type="line"/>
    </contour>
  </outline>
</glyph>
<glyph name="five" format="1">
  <advance width="588"/>
  <unicode hex="0035"/>
  <outline>
    <contour>
      <point x="210" y="0" type="curve" smooth="yes"/>
      <point x="360" y="0"/>
      <point x="506" y="141"/>
      <point x="506" y="309" type="curve" smooth="yes"/>
      <point x="506" y="402"/>
      <point x="452" y="486"/>
      <point x="342" y="486" type="curve" smooth="yes"/>
      <point x="302" y="486"/>
      <point x="268" y="477"/>
      <point x="238" y="464" type="curve"/>
      <point x="268" y="563" type="line"/>
      <point x="532" y="563" type="line"/>
      <point x="570" y="657" type="line"/>
      <point x="204" y="657" type="line"/>
      <point x="104" y="337" type="line"/>
      <point x="178" y="312" type="line"/>
      <point x="215" y="356"/>
      <point x="273" y="392"/>
      <point x="322" y="392" type="curve" smooth="yes"/>
      <point x="369" y="392"/>
      <point x="412" y="359"/>
      <point x="412" y="295" type="curve" smooth="yes"/>
      <point x="412" y="198"/>
      <point x="327" y="94"/>
      <point x="229" y="94" type="curve" smooth="yes"/>
      <point x="189" y="94"/>
      <point x="143" y="125"/>
      <point x="127" y="191" type="curve"/>
      <point x="33" y="153" type="line"/>
      <point x="65" y="28"/>
      <point x="156" y="0"/>
    </contour>
  </outline>
</glyph>
<glyph name="eight" format="1">
  <advance width="573"/>
  <unicode hex="0038"/>
  <outline>
    <contour>
      <point x="217" y="-3" type="curve" smooth="yes"/>
      <point x="110" y="-3"/>
      <point x="43" y="58"/>
      <point x="43" y="146" type="curve" smooth="yes"/>
      <point x="43" y="253"/>
      <point x="122" y="322"/>
      <point x="184" y="357" type="curve"/>
      <point x="156" y="379"/>
      <point x="136" y="406"/>
      <point x="136" y="449" type="curve" smooth="yes"/>
      <point x="136" y="586"/>
      <point x="257" y="669"/>
      <point x="370" y="669" type="curve" smooth="yes"/>
      <point x="464" y="669"/>
      <point x="522" y="616"/>
      <point x="522" y="537" type="curve" smooth="yes"/>
      <point x="522" y="450"/>
      <point x="465" y="395"/>
      <point x="411" y="364" type="curve"/>
      <point x="452" y="332"/>
      <point x="474" y="289"/>
      <point x="474" y="238" type="curve" smooth="yes"/>
      <point x="474" y="104"/>
      <point x="351" y="-3"/>
    </contour>
    <contour>
      <point x="282" y="310" type="curve"/>
      <point x="221" y="286"/>
      <point x="139" y="247"/>
      <point x="139" y="164" type="curve" smooth="yes"/>
      <point x="139" y="122"/>
      <point x="180" y="93"/>
      <point x="237" y="93" type="curve" smooth="yes"/>
      <point x="292" y="93"/>
      <point x="375" y="130"/>
      <point x="375" y="210" type="curve" smooth="yes"/>
      <point x="375" y="261"/>
      <point x="328" y="294"/>
    </contour>
    <contour>
      <point x="318" y="411" type="curve"/>
      <point x="382" y="437"/>
      <point x="425" y="464"/>
      <point x="425" y="519" type="curve" smooth="yes"/>
      <point x="425" y="552"/>
      <point x="393" y="573"/>
      <point x="349" y="573" type="curve" smooth="yes"/>
      <point x="289" y="573"/>
      <point x="235" y="530"/>
      <point x="235" y="479" type="curve" smooth="yes"/>
      <point x="235" y="448"/>
      <point x="265" y="428"/>
    </contour>
  </outline>
</glyph>
<glyph name="nine" format="1">
  <advance width="572"/>
  <unicode hex="0039"/>
  <outline>
    <contour>
      <point x="126" y="-9" type="line"/>
      <point x="290" y="48"/>
      <point x="526" y="237"/>
      <point x="526" y="495" type="curve" smooth="yes"/>
      <point x="526" y="596"/>
      <point x="475" y="669"/>
      <point x="352" y="669" type="curve" smooth="yes"/>
      <point x="231" y="669"/>
      <point x="86" y="545"/>
      <point x="86" y="365" type="curve" smooth="yes"/>
      <point x="86" y="222"/>
      <point x="226" y="217"/>
      <point x="244" y="217" type="curve" smooth="yes"/>
      <point x="280" y="217"/>
      <point x="307" y="222"/>
      <point x="336" y="231" type="curve"/>
      <point x="283" y="167"/>
      <point x="203" y="111"/>
      <point x="114" y="78" type="curve"/>
    </contour>
    <contour>
      <point x="410" y="364" type="curve"/>
      <point x="387" y="346"/>
      <point x="333" y="311"/>
      <point x="264" y="311" type="curve" smooth="yes"/>
      <point x="244" y="311"/>
      <point x="182" y="317"/>
      <point x="182" y="389" type="curve" smooth="yes"/>
      <point x="182" y="470"/>
      <point x="243" y="576"/>
      <point x="330" y="576" type="curve" smooth="yes"/>
      <point x="379" y="576"/>
      <point x="432" y="556"/>
      <point x="432" y="474" type="curve" smooth="yes"/>
      <point x="432" y="445"/>
      <point x="425" y="402"/>
    </contour>
  </outline>
</glyph>
<glyph name="colon" format="1">
  <advance width="276"/>
  <unicode hex="003A"/>
  <outline>
    <contour>
      <point x="249" y="454" type="line"/>
      <point x="131" y="439" type="line"/>
      <point x="92" y="317" type="line"/>
      <point x="209" y="332" type="line"/>
    </contour>
    <contour>
      <point x="154" y="133" type="line"/>
      <point x="39" y="118" type="line"/>
      <point x="-1" y="-4" type="line"/>
      <point x="117" y="12" type="line"/>
    </contour>
  </outline>
</glyph>
<glyph name="semicolon" format="1">
  <advance width="358"/>
  <unicode hex="003B"/>
  <outline>
    <contour>
      <point x="313" y="456" type="line"/>
      <point x="196" y="441" type="line"/>
      <point x="156" y="319" type="line"/>
      <point x="274" y="334" type="line"/>
    </contour>
    <contour>
      <point x="134" y="124" type="line"/>
      <point x="30" y="37" type="line"/>
      <point x="68" y="14" type="line"/>
      <point x="0" y="-73" type="line"/>
      <point x="75" y="-121" type="line"/>
      <point x="222" y="68" type="line"/>
    </contour>
  </outline>
</glyph>
<glyph name="less" format="1">
  <advance width="594"/>
  <unicode hex="003C"/>
  <outline>
    <contour>
      <point x="380" y="-11" type="line"/>
      <point x="450" y="68" type="line"/>
      <point x="218" y="249" type="line"/>
      <point x="543" y="433" type="line"/>
      <point x="510" y="513" type="line"/>
      <point x="48" y="251" type="line"/>
    </contour>
  </outline>
</glyph>
<glyph name="equal" format="1">
  <advance width="531"/>
  <unicode hex="003D"/>
  <outline>
    <contour>
      <point x="433" y="292" type="line"/>
      <point x="470" y="386" type="line"/>
      <point x="111" y="386" type="line"/>
      <point x="74" y="292" type="line"/>
    </contour>
    <contour>
      <point x="395" y="113" type="line"/>
      <point x="431" y="206" type="line"/>
      <point x="72" y="206" type="line"/>
      <point x="36" y="113" type="line"/>
    </contour>
  </outline>
</glyph>
<glyph name="greater" format="1">
  <advance width="594"/>
  <unicode hex="003E"/>
  <outline>
    <contour>
      <point x="56" y="-10" type="line"/>
      <point x="518" y="251" type="line"/>
      <point x="186" y="512" type="line"/>
      <point x="116" y="435" type="line"/>
      <point x="346" y="252" type="line"/>
      <point x="23" y="69" type="line"/>
    </contour>
  </outline>
</glyph>
<glyph name="question" format="1">
  <advance width="568"/>
  <unicode hex="003F"/>
  <outline>
    <contour>
      <point x="215" y="124" type="line"/>
      <point x="113" y="107" type="line"/>
      <point x="80" y="-5" type="line"/>
      <point x="181" y="12" type="line"/>
    </contour>
    <contour>
      <point x="358" y="694" type="curve" smooth="yes"/>
      <point x="249" y="694"/>
      <point x="147" y="603"/>
      <point x="114" y="566" type="curve"/>
      <point x="170" y="495" type="line"/>
      <point x="179" y="507"/>
      <point x="255" y="599"/>
      <point x="341" y="599" type="curve" smooth="yes"/>
      <point x="410" y="599"/>
      <point x="437" y="561"/>
      <point x="437" y="516" type="curve" smooth="yes"/>
      <point x="437" y="442"/>
      <point x="376" y="402"/>
      <point x="322" y="362" type="curve" smooth="yes"/>
      <point x="152" y="235" type="line"/>
      <point x="182" y="149" type="line"/>
      <point x="369" y="290" type="line" smooth="yes"/>
      <point x="436" y="340"/>
      <point x="534" y="410"/>
      <point x="534" y="543" type="curve" smooth="yes"/>
      <point x="534" y="636"/>
      <point x="471" y="694"/>
    </contour>
  </outline>
</glyph>
<glyph name="at" format="1">
  <advance width="854"/>
  <unicode hex="0040"/>
  <outline>
    <contour>
      <point x="362" y="7" type="curve" smooth="yes"/>
      <point x="443" y="7"/>
      <point x="501" y="42"/>
      <point x="537" y="61" type="curve"/>
      <point x="620" y="18" type="line"/>
      <point x="606" y="7"/>
      <point x="481" y="-86"/>
      <point x="342" y="-86" type="curve" smooth="yes"/>
      <point x="176" y="-86"/>
      <point x="62" y="30"/>
      <point x="62" y="184" type="curve" smooth="yes"/>
      <point x="62" y="419"/>
      <point x="282" y="607"/>
      <point x="498" y="607" type="curve" smooth="yes"/>
      <point x="656" y="607"/>
      <point x="762" y="502"/>
      <point x="762" y="354" type="curve" smooth="yes"/>
      <point x="762" y="217"/>
      <point x="677" y="85"/>
      <point x="545" y="85" type="curve" smooth="yes"/>
      <point x="497" y="85"/>
      <point x="447" y="112"/>
      <point x="427" y="146" type="curve"/>
      <point x="394" y="118"/>
      <point x="356" y="98"/>
      <point x="314" y="98" type="curve" smooth="yes"/>
      <point x="251" y="98"/>
      <point x="212" y="133"/>
      <point x="212" y="197" type="curve" smooth="yes"/>
      <point x="212" y="313"/>
      <point x="321" y="435"/>
      <point x="436" y="435" type="curve" smooth="yes"/>
      <point x="473" y="435"/>
      <point x="503" y="431"/>
      <point x="542" y="397" type="curve"/>
      <point x="470" y="321" type="line"/>
      <point x="445" y="341"/>
      <point x="432" y="341"/>
      <point x="416" y="341" type="curve" smooth="yes"/>
      <point x="365" y="341"/>
      <point x="309" y="277"/>
      <point x="309" y="221" type="curve" smooth="yes"/>
      <point x="309" y="202"/>
      <point x="319" y="192"/>
      <point x="334" y="192" type="curve" smooth="yes"/>
      <point x="372" y="192"/>
      <point x="429" y="272"/>
      <point x="450" y="304" type="curve"/>
      <point x="529" y="272" type="line"/>
      <point x="512" y="237"/>
      <point x="511" y="231"/>
      <point x="511" y="220" type="curve" smooth="yes"/>
      <point x="511" y="197"/>
      <point x="531" y="180"/>
      <point x="566" y="180" type="curve" smooth="yes"/>
      <point x="632" y="180"/>
      <point x="666" y="259"/>
      <point x="666" y="334" type="curve" smooth="yes"/>
      <point x="666" y="429"/>
      <point x="606" y="512"/>
      <point x="477" y="512" type="curve" smooth="yes"/>
      <point x="314" y="512"/>
      <point x="158" y="371"/>
      <point x="158" y="200" type="curve" smooth="yes"/>
      <point x="158" y="74"/>
      <point x="268" y="7"/>
    </contour>
  </outline>
</glyph>
<glyph name="B" format="1">
  <advance width="628"/>
  <unicode hex="0042"/>
  <outline>
    <contour>
      <point x="6" y="0" type="line"/>
      <point x="92" y="0" type="line" smooth="yes"/>
      <point x="254" y="0"/>
      <point x="554" y="39"/>
      <point x="554" y="244" type="curve" smooth="yes"/>
      <point x="554" y="309"/>
      <point x="510" y="357"/>
      <point x="462" y="374" type="curve"/>
      <point x="524" y="412"/>
      <point x="559" y="466"/>
      <point x="559" y="538" type="curve" smooth="yes"/>
      <point x="559" y="628"/>
      <point x="491" y="681"/>
      <point x="370" y="681" type="curve" smooth="yes"/>
      <point x="150" y="681" type="line"/>
    </contour>
    <contour>
      <point x="168" y="309" type="line"/>
      <point x="316" y="309" type="line" smooth="yes"/>
      <point x="369" y="309"/>
      <point x="456" y="296"/>
      <point x="456" y="230" type="curve" smooth="yes"/>
      <point x="456" y="115"/>
      <point x="223" y="96"/>
      <point x="123" y="96" type="curve"/>
    </contour>
    <contour>
      <point x="227" y="584" type="line"/>
      <point x="350" y="584" type="line" smooth="yes"/>
      <point x="437" y="584"/>
      <point x="459" y="550"/>
      <point x="459" y="515" type="curve" smooth="yes"/>
      <point x="459" y="427"/>
      <point x="363" y="405"/>
      <point x="296" y="405" type="curve" smooth="yes"/>
      <point x="189" y="405" type="line"/>
    </contour>
  </outline>
</glyph>
<glyph name="C" format="1">
  <advance width="657"/>
  <unicode hex="0043"/>
  <outline>
    <contour>
      <point x="279" y="-1" type="curve" smooth="yes"/>
      <point x="384" y="-1"/>
      <point x="494" y="56"/>
      <point x="571" y="149" type="curve"/>
      <point x="514" y="221" type="line"/>
      <point x="456" y="140"/>
      <point x="379" y="95"/>
      <point x="300" y="95" type="curve" smooth="yes"/>
      <point x="208" y="95"/>
      <point x="145" y="163"/>
      <point x="145" y="253" type="curve" smooth="yes"/>
      <point x="145" y="362"/>
      <point x="283" y="585"/>
      <point x="410" y="585" type="curve" smooth="yes"/>
      <point x="469" y="585"/>
      <point x="502" y="561"/>
      <point x="519" y="539" type="curve"/>
      <point x="511" y="502" type="line"/>
      <point x="600" y="502" type="line"/>
      <point x="635" y="665" type="line"/>
      <point x="546" y="665" type="line"/>
      <point x="543" y="651" type="line"/>
      <point x="512" y="667"/>
      <point x="475" y="681"/>
      <point x="435" y="681" type="curve" smooth="yes"/>
      <point x="225" y="681"/>
      <point x="48" y="384"/>
      <point x="48" y="229" type="curve" smooth="yes"/>
      <point x="48" y="95"/>
      <point x="144" y="-1"/>
    </contour>
  </outline>
</glyph>
<glyph name="F" format="1">
  <advance width="531"/>
  <unicode hex="0046"/>
  <outline>
    <contour>
      <point x="571" y="582" type="line"/>
      <point x="222" y="582" type="line"/>
      <point x="182" y="395" type="line"/>
      <point x="502" y="395" type="line"/>
      <point x="464" y="295" type="line"/>
      <point x="161" y="295" type="line"/>
      <point x="101" y="12" type="line"/>
      <point x="-2" y="-5" type="line"/>
      <point x="144" y="681" type="line"/>
      <point x="610" y="681" type="line"/>
    </contour>
  </outline>
</glyph>
<glyph name="G" format="1">
  <advance width="770"/>
  <unicode hex="0047"/>
  <outline>
    <contour>
      <point x="694" y="299" type="curve"/>
      <point x="672" y="197" type="line"/>
      <point x="660" y="202"/>
      <point x="648" y="207"/>
      <point x="634" y="210" type="curve"/>
      <point x="601" y="142"/>
      <point x="505" y="-2"/>
      <point x="300" y="-2" type="curve" smooth="yes"/>
      <point x="153" y="-2"/>
      <point x="65" y="104"/>
      <point x="65" y="252" type="curve" smooth="yes"/>
      <point x="65" y="457"/>
      <point x="244" y="682"/>
      <point x="463" y="682" type="curve" smooth="yes"/>
      <point x="616" y="682"/>
      <point x="695" y="587"/>
      <point x="700" y="449" type="curve"/>
      <point x="601" y="430" type="line"/>
      <point x="597" y="524"/>
      <point x="546" y="586"/>
      <point x="443" y="586" type="curve" smooth="yes"/>
      <point x="289" y="586"/>
      <point x="190" y="424"/>
      <point x="172" y="341" type="curve"/>
      <point x="167.441" y="321.246"/>
      <point x="165.011" y="300.122"/>
      <point x="165.011" y="278.86" type="curve" smooth="yes"/>
      <point x="165.011" y="188.181"/>
      <point x="209.211" y="95"/>
      <point x="321" y="95" type="curve" smooth="yes"/>
      <point x="416" y="95"/>
      <point x="491" y="141"/>
      <point x="538" y="220" type="curve"/>
      <point x="486" y="218"/>
      <point x="416" y="202"/>
      <point x="364" y="182" type="curve"/>
      <point x="387" y="288" type="line"/>
      <point x="447" y="306"/>
      <point x="513" y="316"/>
      <point x="569" y="316" type="curve" smooth="yes"/>
      <point x="608" y="316"/>
      <point x="651" y="310"/>
    </contour>
  </outline>
</glyph>
<glyph name="I" format="1">
  <advance width="463"/>
  <unicode hex="0049"/>
  <outline>
    <contour>
      <point x="450" y="582" type="line"/>
      <point x="489" y="681" type="line"/>
      <point x="154" y="681" type="line"/>
      <point x="116" y="582" type="line"/>
      <point x="245" y="582" type="line"/>
      <point x="143" y="99" type="line"/>
      <point x="31" y="99" type="line"/>
      <point x="-7" y="0" type="line"/>
      <point x="327" y="0" type="line"/>
      <point x="366" y="99" type="line"/>
      <point x="242" y="99" type="line"/>
      <point x="344" y="582" type="line"/>
    </contour>
  </outline>
</glyph>
<glyph name="J" format="1">
  <advance width="495"/>
  <unicode hex="004A"/>
  <outline>
    <contour>
      <point x="262" y="679" type="line"/>
      <point x="241" y="579" type="line"/>
      <point x="385" y="579" type="line"/>
      <point x="298" y="174" type="line" smooth="yes"/>
      <point x="288" y="129"/>
      <point x="248" y="95"/>
      <point x="195" y="95" type="curve" smooth="yes"/>
      <point x="150" y="95"/>
      <point x="123" y="121"/>
      <point x="123" y="158" type="curve" smooth="yes"/>
      <point x="123" y="163"/>
      <point x="124" y="168"/>
      <point x="125" y="174" type="curve" smooth="yes"/>
      <point x="140" y="244" type="line"/>
      <point x="38" y="226" type="line"/>
      <point x="26" y="174" type="line" smooth="yes"/>
      <point x="23" y="161"/>
      <point x="22" y="149"/>
      <point x="22" y="137" type="curve" smooth="yes"/>
      <point x="22" y="57"/>
      <point x="81" y="1"/>
      <point x="175" y="1" type="curve" smooth="yes"/>
      <point x="286" y="1"/>
      <point x="375" y="72"/>
      <point x="397" y="174" type="curve" smooth="yes"/>
      <point x="484" y="579" type="line"/>
      <point x="531" y="579" type="line"/>
      <point x="552" y="679" type="line"/>
    </contour>
  </outline>
</glyph>
<glyph name="K" format="1">
  <advance width="603"/>
  <unicode hex="004B"/>
  <outline>
    <contour>
      <point x="506" y="68" type="line"/>
      <point x="207" y="337" type="line"/>
      <point x="598" y="616" type="line"/>
      <point x="551" y="689" type="line"/>
      <point x="194" y="435" type="line"/>
      <point x="247" y="686" type="line"/>
      <point x="147" y="668" type="line"/>
      <point x="4" y="-5" type="line"/>
      <point x="104" y="12" type="line"/>
      <point x="153" y="242" type="line"/>
      <point x="430" y="-9" type="line"/>
    </contour>
  </outline>
</glyph>
<glyph name="M" format="1">
  <advance width="891"/>
  <unicode hex="004D"/>
  <outline>
    <contour>
      <point x="276" y="446" type="line"/>
      <point x="92" y="12" type="line"/>
      <point x="-12" y="-6" type="line"/>
      <point x="273" y="669" type="line"/>
      <point x="361" y="685" type="line"/>
      <point x="398" y="166" type="line"/>
      <point x="667" y="670" type="line"/>
      <point x="762" y="685" type="line"/>
      <point x="762" y="13" type="line"/>
      <point x="660" y="-4" type="line"/>
      <point x="660" y="467" type="line"/>
      <point x="417" y="11" type="line"/>
      <point x="309" y="-3" type="line"/>
    </contour>
  </outline>
</glyph>
<glyph name="R" format="1">
  <advance width="620"/>
  <unicode hex="0052"/>
  <outline>
    <contour>
      <point x="229" y="587" type="line"/>
      <point x="173" y="322" type="line"/>
      <point x="360" y="332"/>
      <point x="480" y="398"/>
      <point x="480" y="484" type="curve" smooth="yes"/>
      <point x="480" y="541"/>
      <point x="424" y="587"/>
      <point x="244" y="587" type="curve" smooth="yes"/>
    </contour>
    <contour>
      <point x="273" y="224" type="curve" smooth="yes"/>
      <point x="262" y="230"/>
      <point x="243" y="232"/>
      <point x="226" y="232" type="curve" smooth="yes"/>
      <point x="209" y="232"/>
      <point x="178" y="229"/>
      <point x="151" y="225" type="curve"/>
      <point x="106" y="12" type="line"/>
      <point x="4" y="-5" type="line"/>
      <point x="150" y="678" type="line"/>
      <point x="189" y="682"/>
      <point x="243" y="687"/>
      <point x="276" y="687" type="curve" smooth="yes"/>
      <point x="405" y="687"/>
      <point x="582" y="662"/>
      <point x="582" y="514" type="curve" smooth="yes"/>
      <point x="582" y="419"/>
      <point x="508" y="326"/>
      <point x="388" y="273" type="curve"/>
      <point x="429" y="233"/>
      <point x="480" y="163"/>
      <point x="516" y="52" type="curve"/>
      <point x="426" y="-13" type="line"/>
      <point x="378" y="143"/>
      <point x="312" y="202"/>
    </contour>
  </outline>
</glyph>
<glyph name="S" format="1">
  <advance width="625"/>
  <unicode hex="0053"/>
  <outline>
    <contour>
      <point x="313" y="308" type="curve"/>
      <point x="414" y="279"/>
      <point x="431" y="245"/>
      <point x="431" y="217" type="curve" smooth="yes"/>
      <point x="431" y="144"/>
      <point x="350" y="95"/>
      <point x="271" y="95" type="curve" smooth="yes"/>
      <point x="213" y="95"/>
      <point x="150" y="128"/>
      <point x="139" y="200" type="curve"/>
      <point x="32" y="184" type="line"/>
      <point x="45" y="73"/>
      <point x="131" y="-1"/>
      <point x="251" y="-1" type="curve" smooth="yes"/>
      <point x="360" y="-1"/>
      <point x="539" y="75"/>
      <point x="539" y="237" type="curve" smooth="yes"/>
      <point x="539" y="315"/>
      <point x="479" y="370"/>
      <point x="358" y="406" type="curve" smooth="yes"/>
      <point x="284" y="428"/>
      <point x="245" y="453"/>
      <point x="245" y="490" type="curve" smooth="yes"/>
      <point x="245" y="568"/>
      <point x="344" y="588"/>
      <point x="399" y="588" type="curve" smooth="yes"/>
      <point x="440" y="588"/>
      <point x="505" y="574"/>
      <point x="505" y="525" type="curve" smooth="yes"/>
      <point x="505" y="523"/>
      <point x="506" y="499"/>
      <point x="486" y="470" type="curve"/>
      <point x="589" y="488" type="line"/>
      <point x="608" y="537"/>
      <point x="605" y="538"/>
      <point x="605" y="558" type="curve" smooth="yes"/>
      <point x="605" y="652"/>
      <point x="504" y="681"/>
      <point x="419" y="681" type="curve" smooth="yes"/>
      <point x="286" y="681"/>
      <point x="136" y="613"/>
      <point x="136" y="468" type="curve" smooth="yes"/>
      <point x="136" y="380"/>
      <point x="228" y="331"/>
    </contour>
  </outline>
</glyph>
<glyph name="T" format="1">
  <advance width="548"/>
  <unicode hex="0054"/>
  <outline>
    <contour>
      <point x="151" y="-5" type="line"/>
      <point x="276" y="582" type="line"/>
      <point x="77" y="582" type="line"/>
      <point x="98" y="681" type="line"/>
      <point x="611" y="681" type="line"/>
      <point x="590" y="582" type="line"/>
      <point x="376" y="582" type="line"/>
      <point x="255" y="12" type="line"/>
    </contour>
  </outline>
</glyph>
<glyph name="V" format="1">
  <advance width="566"/>
  <unicode hex="0056"/>
  <outline>
    <contour>
      <point x="242" y="174" type="line"/>
      <point x="545" y="688" type="line"/>
      <point x="629" y="650" type="line"/>
      <point x="252" y="12" type="line"/>
      <point x="156" y="-3" type="line"/>
      <point x="85" y="652" type="line"/>
      <point x="187" y="687" type="line"/>
    </contour>
  </outline>
</glyph>
<glyph name="W" format="1">
  <advance width="904"/>
  <unicode hex="0057"/>
  <outline>
    <contour>
      <point x="961" y="686" type="line"/>
      <point x="848" y="668" type="line"/>
      <point x="585" y="191" type="line"/>
      <point x="567" y="685" type="line"/>
      <point x="475" y="669" type="line"/>
      <point x="397" y="517"/>
      <point x="314" y="353"/>
      <point x="234" y="198" type="curve"/>
      <point x="194" y="685" type="line"/>
      <point x="94" y="667" type="line"/>
      <point x="148" y="-3" type="line"/>
      <point x="240" y="12" type="line"/>
      <point x="476" y="474" type="line"/>
      <point x="496" y="-3" type="line"/>
      <point x="589" y="12" type="line"/>
    </contour>
  </outline>
</glyph>
<glyph name="X" format="1">
  <advance width="706"/>
  <unicode hex="0058"/>
  <outline>
    <contour>
      <point x="426" y="345" type="line"/>
      <point x="720" y="623" type="line"/>
      <point x="665" y="692" type="line"/>
      <point x="381" y="423" type="line"/>
      <point x="224" y="691" type="line"/>
      <point x="135" y="627" type="line"/>
      <point x="299" y="345" type="line"/>
      <point x="-3" y="58" type="line"/>
      <point x="51" y="-11" type="line"/>
      <point x="344" y="266" type="line"/>
      <point x="506" y="-10" type="line"/>
      <point x="595" y="54" type="line"/>
    </contour>
  </outline>
</glyph>
<glyph name="Y" format="1">
  <advance width="654"/>
  <unicode hex="0059"/>
  <outline>
    <contour>
      <point x="336" y="318" type="line"/>
      <point x="202" y="677" type="line"/>
      <point x="90" y="677" type="line"/>
      <point x="258" y="223" type="line"/>
      <point x="80" y="0" type="line"/>
      <point x="193" y="0" type="line"/>
      <point x="738" y="677" type="line"/>
      <point x="625" y="677" type="line"/>
    </contour>
  </outline>
</glyph>
<glyph name="bracketleft" format="1">
  <advance width="341"/>
  <unicode hex="005B"/>
  <outline>
    <contour>
      <point x="172" y="-113" type="line"/>
      <point x="211" y="-18" type="line"/>
      <point x="93" y="-18" type="line"/>
      <point x="242" y="683" type="line"/>
      <point x="356" y="683" type="line"/>
      <point x="393" y="778" type="line"/>
      <point x="168" y="778" type="line"/>
      <point x="-22" y="-113" type="line"/>
    </contour>
  </outline>
</glyph>
<glyph name="backslash" format="1">
  <advance width="518"/>
  <unicode hex="005C"/>
  <outline>
    <contour>
      <point x="205" y="676" type="line"/>
      <point x="98" y="676" type="line"/>
      <point x="325" y="0" type="line"/>
      <point x="433" y="0" type="line"/>
    </contour>
  </outline>
</glyph>
<glyph name="asciicircum" format="1">
  <advance width="526"/>
  <unicode hex="005E"/>
  <outline>
    <contour>
      <point x="232" y="644" type="line"/>
      <point x="189" y="718" type="line"/>
      <point x="388" y="854" type="line"/>
      <point x="506" y="714" type="line"/>
      <point x="428" y="645" type="line"/>
      <point x="355" y="726" type="line"/>
    </contour>
  </outline>
</glyph>
<glyph name="grave" format="1">
  <advance width="526"/>
  <unicode hex="0060"/>
  <outline>
    <contour>
      <point x="465" y="703" type="line"/>
      <point x="374" y="654" type="line"/>
      <point x="247" y="816" type="line"/>
      <point x="355" y="870" type="line"/>
    </contour>
  </outline>
</glyph>
<glyph name="b" format="1">
  <advance width="554"/>
  <unicode hex="0062"/>
  <outline>
    <contour>
      <point x="360" y="491" type="curve" smooth="yes"/>
      <point x="298" y="491"/>
      <point x="243" y="476"/>
      <point x="198" y="448" type="curve"/>
      <point x="247" y="679" type="line"/>
      <point x="147" y="661" type="line"/>
      <point x="9" y="12" type="line"/>
      <point x="101" y="-5" type="line"/>
      <point x="106" y="16" type="line"/>
      <point x="133" y="8"/>
      <point x="170" y="1"/>
      <point x="206" y="1" type="curve" smooth="yes"/>
      <point x="388" y="1"/>
      <point x="491" y="180"/>
      <point x="491" y="330" type="curve" smooth="yes"/>
      <point x="491" y="415"/>
      <point x="453" y="491"/>
    </contour>
    <contour>
      <point x="219" y="95" type="curve" smooth="yes"/>
      <point x="182" y="95"/>
      <point x="146" y="105"/>
      <point x="126" y="112" type="curve"/>
      <point x="164" y="287" type="line" smooth="yes"/>
      <point x="177" y="346"/>
      <point x="242" y="395"/>
      <point x="326" y="395" type="curve" smooth="yes"/>
      <point x="378" y="395"/>
      <point x="395" y="354"/>
      <point x="395" y="310" type="curve" smooth="yes"/>
      <point x="395" y="193"/>
      <point x="323" y="95"/>
    </contour>
  </outline>
</glyph>
<glyph name="c" format="1">
  <advance width="533"/>
  <unicode hex="0063"/>
  <outline>
    <contour>
      <point x="240" y="93" type="curve"/>
      <point x="289" y="95"/>
      <point x="341" y="131"/>
      <point x="382" y="186" type="curve"/>
      <point x="439" y="114" type="line"/>
      <point x="378" y="43"/>
      <point x="295" y="0"/>
      <point x="213" y="0" type="curve" smooth="yes"/>
      <point x="111" y="0"/>
      <point x="34" y="74"/>
      <point x="34" y="174" type="curve" smooth="yes"/>
      <point x="34" y="279"/>
      <point x="163" y="502"/>
      <point x="325" y="502" type="curve" smooth="yes"/>
      <point x="390" y="502"/>
      <point x="442" y="470"/>
      <point x="474" y="411" type="curve"/>
      <point x="389" y="342" type="line"/>
      <point x="373" y="386"/>
      <point x="341" y="409"/>
      <point x="307" y="409" type="curve" smooth="yes"/>
      <point x="213" y="409"/>
      <point x="129" y="257"/>
      <point x="129" y="189" type="curve" smooth="yes"/>
      <point x="129" y="107"/>
      <point x="206" y="93"/>
    </contour>
  </outline>
</glyph>
<glyph name="f" format="1">
  <advance width="358"/>
  <unicode hex="0066"/>
  <outline>
    <contour>
      <point x="435" y="673" type="line"/>
      <point x="395" y="677"/>
      <point x="384" y="677"/>
      <point x="373" y="677" type="curve" smooth="yes"/>
      <point x="243" y="677"/>
      <point x="169" y="630"/>
      <point x="136" y="502" type="curve"/>
      <point x="69" y="502" type="line"/>
      <point x="34" y="410" type="line"/>
      <point x="116" y="410" type="line"/>
      <point x="27" y="-5" type="line"/>
      <point x="127" y="12" type="line"/>
      <point x="212" y="410" type="line"/>
      <point x="320" y="410" type="line"/>
      <point x="360" y="502" type="line"/>
      <point x="237" y="502" type="line"/>
      <point x="253" y="562"/>
      <point x="285" y="582"/>
      <point x="376" y="582" type="curve"/>
    </contour>
  </outline>
</glyph>
<glyph name="h" format="1">
  <advance width="530"/>
  <unicode hex="0068"/>
  <outline>
    <contour>
      <point x="145" y="201" type="line" smooth="yes"/>
      <point x="151" y="227"/>
      <point x="158" y="253"/>
      <point x="171" y="272" type="curve" smooth="yes"/>
      <point x="190" y="300"/>
      <point x="279" y="407"/>
      <point x="334" y="407" type="curve" smooth="yes"/>
      <point x="358" y="407"/>
      <point x="369" y="384"/>
      <point x="369" y="340" type="curve" smooth="yes"/>
      <point x="369" y="275"/>
      <point x="320" y="48"/>
      <point x="304" y="-5" type="curve"/>
      <point x="404" y="12" type="line"/>
      <point x="419" y="72"/>
      <point x="466" y="290"/>
      <point x="466" y="370" type="curve" smooth="yes"/>
      <point x="466" y="460"/>
      <point x="437" y="505"/>
      <point x="367" y="505" type="curve" smooth="yes"/>
      <point x="306" y="505"/>
      <point x="241" y="463"/>
      <point x="189" y="409" type="curve"/>
      <point x="247" y="679" type="line"/>
      <point x="146" y="661" type="line"/>
      <point x="4" y="-5" type="line"/>
      <point x="105" y="12" type="line"/>
    </contour>
  </outline>
</glyph>
<glyph name="j" format="1">
  <advance width="339"/>
  <unicode hex="006A"/>
  <outline>
    <contour>
      <point x="358" y="684" type="line"/>
      <point x="254" y="668" type="line"/>
      <point x="221" y="546" type="line"/>
      <point x="322" y="562" type="line"/>
    </contour>
    <contour>
      <point x="-98" y="30" type="line"/>
      <point x="-94" y="11"/>
      <point x="-55" y="-164"/>
      <point x="49" y="-164" type="curve" smooth="yes"/>
      <point x="152" y="-164"/>
      <point x="198" y="-52"/>
      <point x="215" y="23" type="curve" smooth="yes"/>
      <point x="218" y="38"/>
      <point x="266" y="275"/>
      <point x="313" y="517" type="curve"/>
      <point x="213" y="499" type="line"/>
      <point x="166" y="260"/>
      <point x="119" y="34"/>
      <point x="116" y="18" type="curve" smooth="yes"/>
      <point x="105" y="-31"/>
      <point x="87" y="-72"/>
      <point x="61" y="-72" type="curve" smooth="yes"/>
      <point x="30" y="-72"/>
      <point x="8" y="13"/>
      <point x="1" y="50" type="curve"/>
    </contour>
  </outline>
</glyph>
<glyph name="k" format="1">
  <advance width="520"/>
  <unicode hex="006B"/>
  <outline>
    <contour>
      <point x="512" y="484" type="curve"/>
      <point x="447" y="539" type="line"/>
      <point x="367" y="458"/>
      <point x="243" y="354"/>
      <point x="168" y="300" type="curve"/>
      <point x="248" y="679" type="line"/>
      <point x="147" y="662" type="line"/>
      <point x="6" y="-5" type="line"/>
      <point x="108" y="12" type="line"/>
      <point x="146" y="193" type="line"/>
      <point x="213" y="233" type="line"/>
      <point x="246" y="183"/>
      <point x="300" y="87"/>
      <point x="345" y="-11" type="curve"/>
      <point x="434" y="54" type="line"/>
      <point x="298" y="291" type="line"/>
      <point x="356" y="336"/>
      <point x="460" y="430"/>
    </contour>
  </outline>
</glyph>
<glyph name="l" format="1">
  <advance width="252"/>
  <unicode hex="006C"/>
  <outline>
    <contour>
      <point x="159" y="661" type="line"/>
      <point x="259" y="679" type="line"/>
      <point x="117" y="12" type="line"/>
      <point x="17" y="-5" type="line"/>
    </contour>
  </outline>
</glyph>
<glyph name="m" format="1">
  <advance width="843"/>
  <unicode hex="006D"/>
  <outline>
    <contour>
      <point x="178" y="289" type="curve" smooth="yes"/>
      <point x="253" y="381"/>
      <point x="308" y="420"/>
      <point x="340" y="420" type="curve" smooth="yes"/>
      <point x="357" y="420"/>
      <point x="385" y="414"/>
      <point x="385" y="366" type="curve" smooth="yes"/>
      <point x="385" y="355"/>
      <point x="383" y="342"/>
      <point x="380" y="326" type="curve" smooth="yes"/>
      <point x="309" y="-5" type="line"/>
      <point x="410" y="12" type="line"/>
      <point x="465" y="269" type="line" smooth="yes"/>
      <point x="484" y="358"/>
      <point x="572" y="420"/>
      <point x="615" y="420" type="curve" smooth="yes"/>
      <point x="632" y="420"/>
      <point x="660" y="414"/>
      <point x="660" y="366" type="curve" smooth="yes"/>
      <point x="660" y="355"/>
      <point x="658" y="342"/>
      <point x="655" y="326" type="curve" smooth="yes"/>
      <point x="584" y="-5" type="line"/>
      <point x="685" y="12" type="line"/>
      <point x="750" y="319" type="line" smooth="yes"/>
      <point x="756" y="346"/>
      <point x="758" y="370"/>
      <point x="758" y="390" type="curve" smooth="yes"/>
      <point x="758" y="487"/>
      <point x="698" y="510"/>
      <point x="644" y="510" type="curve" smooth="yes"/>
      <point x="598" y="510"/>
      <point x="533" y="479"/>
      <point x="479" y="432" type="curve"/>
      <point x="464" y="495"/>
      <point x="416" y="510"/>
      <point x="369" y="510" type="curve" smooth="yes"/>
      <point x="313" y="510"/>
      <point x="255" y="471"/>
      <point x="197" y="417" type="curve"/>
      <point x="214" y="497" type="line"/>
      <point x="115" y="480" type="line"/>
      <point x="11" y="-5" type="line"/>
      <point x="111" y="12" type="line"/>
      <point x="164" y="262" type="line"/>
      <point x="164" y="262"/>
      <point x="169" y="278"/>
    </contour>
  </outline>
</glyph>
<glyph name="p" format="1">
  <advance width="544"/>
  <unicode hex="0070"/>
  <outline>
    <contour>
      <point x="355" y="497" type="curve" smooth="yes"/>
      <point x="291" y="497"/>
      <point x="249" y="481"/>
      <point x="200" y="458" type="curve"/>
      <point x="210" y="504" type="line"/>
      <point x="109" y="486" type="line"/>
      <point x="-33" y="-180" type="line"/>
      <point x="68" y="-164" type="line"/>
      <point x="107" y="22" type="line"/>
      <point x="133" y="13"/>
      <point x="165" y="6"/>
      <point x="201" y="6" type="curve" smooth="yes"/>
      <point x="382" y="6"/>
      <point x="481" y="185"/>
      <point x="481" y="336" type="curve" smooth="yes"/>
      <point x="481" y="418"/>
      <point x="443" y="497"/>
    </contour>
    <contour>
      <point x="224" y="103" type="curve" smooth="yes"/>
      <point x="187" y="103"/>
      <point x="150" y="117"/>
      <point x="129" y="126" type="curve"/>
      <point x="175" y="343" type="line"/>
      <point x="198" y="366"/>
      <point x="252" y="407"/>
      <point x="322" y="407" type="curve" smooth="yes"/>
      <point x="372" y="407"/>
      <point x="389" y="360"/>
      <point x="389" y="313" type="curve" smooth="yes"/>
      <point x="389" y="207"/>
      <point x="326" y="103"/>
    </contour>
  </outline>
</glyph>
<glyph name="q" format="1">
  <advance width="549"/>
  <unicode hex="0071"/>
  <outline>
    <contour>
      <point x="372" y="497" type="curve" smooth="yes"/>
      <point x="185" y="497"/>
      <point x="31" y="336"/>
      <point x="31" y="162" type="curve" smooth="yes"/>
      <point x="31" y="63"/>
      <point x="97" y="-9"/>
      <point x="201" y="-9" type="curve" smooth="yes"/>
      <point x="246" y="-9"/>
      <point x="268" y="-3"/>
      <point x="299" y="14" type="curve"/>
      <point x="251" y="-183" type="line"/>
      <point x="350" y="-166" type="line"/>
      <point x="517" y="507" type="line"/>
      <point x="421" y="509" type="line"/>
      <point x="417" y="494" type="line"/>
      <point x="402" y="496"/>
      <point x="386" y="497"/>
    </contour>
    <contour>
      <point x="339" y="172" type="line" smooth="yes"/>
      <point x="325" y="116"/>
      <point x="277" y="84"/>
      <point x="219" y="84" type="curve" smooth="yes"/>
      <point x="162" y="84"/>
      <point x="125" y="123"/>
      <point x="125" y="181" type="curve" smooth="yes"/>
      <point x="125" y="307"/>
      <point x="236" y="405"/>
      <point x="353" y="405" type="curve" smooth="yes"/>
      <point x="366" y="405"/>
      <point x="380" y="404"/>
      <point x="396" y="402" type="curve"/>
    </contour>
  </outline>
</glyph>
<glyph name="r" format="1">
  <advance width="427"/>
  <unicode hex="0072"/>
  <outline>
    <contour>
      <point x="420" y="415" type="curve" smooth="yes"/>
      <point x="407" y="356" type="line"/>
      <point x="308" y="340" type="line"/>
      <point x="315" y="365"/>
      <point x="318" y="380"/>
      <point x="318" y="390" type="curve" smooth="yes"/>
      <point x="318" y="398"/>
      <point x="315" y="407"/>
      <point x="304" y="407" type="curve" smooth="yes"/>
      <point x="249" y="407"/>
      <point x="170" y="328"/>
      <point x="154" y="252" type="curve" smooth="yes"/>
      <point x="103" y="12" type="line"/>
      <point x="2" y="-5" type="line"/>
      <point x="107" y="489" type="line"/>
      <point x="208" y="507" type="line"/>
      <point x="193" y="435" type="line"/>
      <point x="234" y="471"/>
      <point x="286" y="502"/>
      <point x="340" y="502" type="curve" smooth="yes"/>
      <point x="389" y="502"/>
      <point x="422" y="472"/>
      <point x="422" y="431" type="curve" smooth="yes"/>
      <point x="422" y="426"/>
      <point x="421" y="420"/>
    </contour>
  </outline>
</glyph>
<glyph name="w" format="1">
  <advance width="679"/>
  <unicode hex="0077"/>
  <outline>
    <contour>
      <point x="687" y="502" type="line"/>
      <point x="432" y="15" type="line"/>
      <point x="340" y="-4" type="line"/>
      <point x="331" y="296" type="line"/>
      <point x="172" y="14" type="line"/>
      <point x="78" y="-5" type="line"/>
      <point x="84" y="481" type="line"/>
      <point x="183" y="502" type="line"/>
      <point x="178" y="196" type="line"/>
      <point x="335" y="484" type="line"/>
      <point x="424" y="499" type="line"/>
      <point x="429" y="192" type="line"/>
      <point x="579" y="485" type="line"/>
    </contour>
  </outline>
</glyph>
<glyph name="x" format="1">
  <advance width="536"/>
  <unicode hex="0078"/>
  <outline>
    <contour>
      <point x="244" y="191" type="line"/>
      <point x="368" y="-9" type="line"/>
      <point x="454" y="53" type="line"/>
      <point x="327" y="256" type="line"/>
      <point x="550" y="444" type="line"/>
      <point x="496" y="511" type="line"/>
      <point x="279" y="326" type="line"/>
      <point x="165" y="511" type="line"/>
      <point x="78" y="449" type="line"/>
      <point x="197" y="261" type="line"/>
      <point x="-42" y="61" type="line"/>
      <point x="13" y="-8" type="line"/>
    </contour>
  </outline>
</glyph>
<glyph name="y" format="1">
  <advance width="526"/>
  <unicode hex="0079"/>
  <outline>
    <contour>
      <point x="456" y="508" type="line"/>
      <point x="241" y="191" type="line"/>
      <point x="150" y="507" type="line"/>
      <point x="55" y="464" type="line"/>
      <point x="166" y="78" type="line"/>
      <point x="14" y="-146" type="line"/>
      <point x="93" y="-187" type="line"/>
      <point x="536" y="467" type="line"/>
    </contour>
  </outline>
</glyph>
<glyph name="z" format="1">
  <advance width="479"/>
  <unicode hex="007A"/>
  <outline>
    <contour>
      <point x="356" y="0" type="line"/>
      <point x="393" y="96" type="line"/>
      <point x="131" y="96" type="line"/>
      <point x="471" y="435" type="line"/>
      <point x="453" y="502" type="line"/>
      <point x="110" y="502" type="line"/>
      <point x="73" y="406" type="line"/>
      <point x="322" y="406" type="line"/>
      <point x="-19" y="68" type="line"/>
      <point x="0" y="0" type="line"/>
    </contour>
  </outline>
</glyph>
<glyph name="braceleft" format="1">
  <advance width="400"/>
  <unicode hex="007B"/>
  <outline>
    <contour>
      <point x="74" y="310" type="line"/>
      <point x="104" y="296"/>
      <point x="121" y="276"/>
      <point x="121" y="250" type="curve" smooth="yes"/>
      <point x="121" y="245"/>
      <point x="121" y="241"/>
      <point x="120" y="236" type="curve" smooth="yes"/>
      <point x="79" y="44" type="line" smooth="yes"/>
      <point x="77" y="33"/>
      <point x="75" y="22"/>
      <point x="75" y="12" type="curve" smooth="yes"/>
      <point x="75" y="-84"/>
      <point x="183" y="-113"/>
      <point x="247" y="-115" type="curve"/>
      <point x="269" y="-21" type="line"/>
      <point x="204" y="-16"/>
      <point x="173" y="5"/>
      <point x="173" y="35" type="curve" smooth="yes"/>
      <point x="173" y="38"/>
      <point x="174" y="45"/>
      <point x="175" y="49" type="curve" smooth="yes"/>
      <point x="213" y="228" type="line" smooth="yes"/>
      <point x="215" y="239"/>
      <point x="216" y="249"/>
      <point x="216" y="258" type="curve" smooth="yes"/>
      <point x="216" y="296"/>
      <point x="198" y="320"/>
      <point x="184" y="341" type="curve"/>
      <point x="229" y="380"/>
      <point x="251" y="408"/>
      <point x="261" y="454" type="curve" smooth="yes"/>
      <point x="297" y="625" type="line" smooth="yes"/>
      <point x="305" y="663"/>
      <point x="357" y="686"/>
      <point x="417" y="688" type="curve"/>
      <point x="439" y="782" type="line"/>
      <point x="369" y="781"/>
      <point x="227" y="746"/>
      <point x="202" y="625" type="curve" smooth="yes"/>
      <point x="166" y="453" type="line" smooth="yes"/>
      <point x="159" y="420"/>
      <point x="130" y="395"/>
      <point x="89" y="379" type="curve"/>
    </contour>
  </outline>
</glyph>
<glyph name="bar" format="1">
  <advance width="281"/>
  <unicode hex="007C"/>
  <outline>
    <contour>
      <point x="115" y="-52" type="line"/>
      <point x="283" y="737" type="line"/>
      <point x="185" y="719" type="line"/>
      <point x="18" y="-69" type="line"/>
    </contour>
  </outline>
</glyph>
<glyph name="braceright" format="1">
  <advance width="400"/>
  <unicode hex="007D"/>
  <outline>
    <contour>
      <point x="332" y="357" type="line"/>
      <point x="303" y="371"/>
      <point x="285" y="391"/>
      <point x="285" y="417" type="curve" smooth="yes"/>
      <point x="285" y="422"/>
      <point x="286" y="426"/>
      <point x="287" y="431" type="curve" smooth="yes"/>
      <point x="328" y="623" type="line" smooth="yes"/>
      <point x="330" y="634"/>
      <point x="331" y="644"/>
      <point x="331" y="654" type="curve" smooth="yes"/>
      <point x="331" y="750"/>
      <point x="223" y="780"/>
      <point x="160" y="782" type="curve"/>
      <point x="138" y="688" type="line"/>
      <point x="202" y="682"/>
      <point x="234" y="661"/>
      <point x="234" y="632" type="curve" smooth="yes"/>
      <point x="234" y="629"/>
      <point x="233" y="622"/>
      <point x="231" y="614" type="curve" smooth="yes"/>
      <point x="194" y="439" type="line" smooth="yes"/>
      <point x="192" y="428"/>
      <point x="190" y="418"/>
      <point x="190" y="408" type="curve" smooth="yes"/>
      <point x="190" y="371"/>
      <point x="208" y="347"/>
      <point x="223" y="326" type="curve"/>
      <point x="178" y="287"/>
      <point x="156" y="259"/>
      <point x="146" y="213" type="curve" smooth="yes"/>
      <point x="109" y="42" type="line" smooth="yes"/>
      <point x="101" y="4"/>
      <point x="49" y="-19"/>
      <point x="-10" y="-21" type="curve"/>
      <point x="-32" y="-115" type="line"/>
      <point x="39" y="-114"/>
      <point x="178" y="-79"/>
      <point x="204" y="42" type="curve" smooth="yes"/>
      <point x="241" y="214" type="line" smooth="yes"/>
      <point x="248" y="247"/>
      <point x="276" y="272"/>
      <point x="318" y="288" type="curve"/>
    </contour>
  </outline>
</glyph>
<glyph name="cent" format="1">
  <advance width="532"/>
  <unicode hex="00A2"/>
  <outline>
    <contour>
      <point x="261" y="90" type="curve"/>
      <point x="244" y="22" type="line"/>
      <point x="149" y="-9" type="line"/>
      <point x="173" y="98" type="line"/>
      <point x="92" y="128"/>
      <point x="53" y="189"/>
      <point x="53" y="261" type="curve" smooth="yes"/>
      <point x="53" y="376"/>
      <point x="152" y="533"/>
      <point x="288" y="580" type="curve"/>
      <point x="304" y="648" type="line"/>
      <point x="399" y="682" type="line"/>
      <point x="377" y="588" type="line"/>
      <point x="425" y="579"/>
      <point x="468" y="547"/>
      <point x="493" y="499" type="curve"/>
      <point x="408" y="430" type="line"/>
      <point x="394" y="466"/>
      <point x="377" y="487"/>
      <point x="356" y="493" type="curve"/>
      <point x="330" y="383"/>
      <point x="281" y="185"/>
      <point x="281" y="185" type="curve"/>
      <point x="321" y="196"/>
      <point x="370" y="231"/>
      <point x="401" y="274" type="curve"/>
      <point x="456" y="203" type="line"/>
      <point x="402" y="141"/>
      <point x="332" y="98"/>
    </contour>
    <contour>
      <point x="196" y="197" type="curve"/>
      <point x="264" y="476" type="line"/>
      <point x="171" y="415"/>
      <point x="148" y="311"/>
      <point x="148" y="283" type="curve" smooth="yes"/>
      <point x="148" y="249"/>
      <point x="163" y="218"/>
    </contour>
  </outline>
</glyph>
<glyph name="currency" format="1">
  <advance width="526"/>
  <unicode hex="00A4"/>
  <outline>
    <contour>
      <point x="421" y="289" type="curve" smooth="yes"/>
      <point x="421" y="247"/>
      <point x="406" y="209"/>
      <point x="380" y="171" type="curve"/>
      <point x="433" y="104" type="line"/>
      <point x="354" y="38" type="line"/>
      <point x="300" y="105" type="line"/>
      <point x="273" y="91"/>
      <point x="243" y="83"/>
      <point x="214" y="83" type="curve" smooth="yes"/>
      <point x="184" y="83"/>
      <point x="157" y="91"/>
      <point x="136" y="105" type="curve"/>
      <point x="54" y="37" type="line"/>
      <point x="2" y="103" type="line"/>
      <point x="85" y="171" type="line"/>
      <point x="80" y="185"/>
      <point x="77" y="201"/>
      <point x="77" y="218" type="curve" smooth="yes"/>
      <point x="77" y="260"/>
      <point x="95" y="298"/>
      <point x="120" y="333" type="curve"/>
      <point x="66" y="403" type="line"/>
      <point x="146" y="468" type="line"/>
      <point x="201" y="398" type="line"/>
      <point x="228" y="412"/>
      <point x="256" y="418"/>
      <point x="285" y="418" type="curve" smooth="yes"/>
      <point x="314" y="418"/>
      <point x="339" y="412"/>
      <point x="361" y="398" type="curve"/>
      <point x="445" y="468" type="line"/>
      <point x="496" y="403" type="line"/>
      <point x="413" y="334" type="line"/>
      <point x="419" y="320"/>
      <point x="421" y="305"/>
    </contour>
    <contour>
      <point x="234" y="175" type="curve" smooth="yes"/>
      <point x="280" y="175"/>
      <point x="327" y="218"/>
      <point x="327" y="267" type="curve" smooth="yes"/>
      <point x="327" y="301"/>
      <point x="302" y="326"/>
      <point x="266" y="326" type="curve" smooth="yes"/>
      <point x="219" y="326"/>
      <point x="171" y="284"/>
      <point x="171" y="235" type="curve" smooth="yes"/>
      <point x="171" y="201"/>
      <point x="197" y="175"/>
    </contour>
  </outline>
</glyph>
<glyph name="yen" format="1">
  <advance width="611"/>
  <unicode hex="00A5"/>
  <outline>
    <contour>
      <point x="237" y="262" type="line"/>
      <point x="96" y="262" type="line"/>
      <point x="133" y="356" type="line"/>
      <point x="218" y="356" type="line"/>
      <point x="135" y="672" type="line"/>
      <point x="240" y="672" type="line"/>
      <point x="314" y="391" type="line"/>
      <point x="515" y="672" type="line"/>
      <point x="620" y="672" type="line"/>
      <point x="393" y="356" type="line"/>
      <point x="492" y="356" type="line"/>
      <point x="454" y="262" type="line"/>
      <point x="332" y="262" type="line"/>
      <point x="320" y="206" type="line"/>
      <point x="460" y="206" type="line"/>
      <point x="422" y="112" type="line"/>
      <point x="300" y="112" type="line"/>
      <point x="279" y="12" type="line"/>
      <point x="180" y="-5" type="line"/>
      <point x="205" y="112" type="line"/>
      <point x="64" y="112" type="line"/>
      <point x="101" y="206" type="line"/>
      <point x="225" y="206" type="line"/>
    </contour>
  </outline>
</glyph>
<glyph name="copyright" format="1">
  <advance width="602"/>
  <unicode hex="00A9"/>
  <outline>
    <contour>
      <point x="259" y="177" type="curve" smooth="yes"/>
      <point x="422" y="177"/>
      <point x="588" y="330"/>
      <point x="588" y="503" type="curve" smooth="yes"/>
      <point x="588" y="626"/>
      <point x="501" y="718"/>
      <point x="374" y="718" type="curve" smooth="yes"/>
      <point x="211" y="718"/>
      <point x="46" y="563"/>
      <point x="46" y="389" type="curve" smooth="yes"/>
      <point x="46" y="268"/>
      <point x="133" y="177"/>
    </contour>
    <contour>
      <point x="355" y="630" type="curve" smooth="yes"/>
      <point x="440" y="630"/>
      <point x="498" y="568"/>
      <point x="498" y="486" type="curve" smooth="yes"/>
      <point x="498" y="368"/>
      <point x="387" y="265"/>
      <point x="278" y="265" type="curve" smooth="yes"/>
      <point x="194" y="265"/>
      <point x="135" y="326"/>
      <point x="135" y="407" type="curve" smooth="yes"/>
      <point x="135" y="525"/>
      <point x="246" y="630"/>
    </contour>
    <contour>
      <point x="287" y="318" type="curve" smooth="yes"/>
      <point x="347" y="318"/>
      <point x="406" y="357"/>
      <point x="446" y="419" type="curve"/>
      <point x="373" y="440" type="line"/>
      <point x="352" y="412"/>
      <point x="333" y="398"/>
      <point x="304" y="398" type="curve" smooth="yes"/>
      <point x="284" y="398"/>
      <point x="266" y="412"/>
      <point x="266" y="434" type="curve" smooth="yes"/>
      <point x="266" y="471"/>
      <point x="297" y="501"/>
      <point x="336" y="501" type="curve" smooth="yes"/>
      <point x="350" y="501"/>
      <point x="369" y="494"/>
      <point x="380" y="475" type="curve"/>
      <point x="447" y="526" type="line"/>
      <point x="417" y="567"/>
      <point x="383" y="580"/>
      <point x="353" y="580" type="curve" smooth="yes"/>
      <point x="268" y="580"/>
      <point x="183" y="516"/>
      <point x="183" y="420" type="curve" smooth="yes"/>
      <point x="183" y="363"/>
      <point x="225" y="318"/>
    </contour>
  </outline>
</glyph>
<glyph name="ordfeminine" format="1">
  <advance width="276"/>
  <unicode hex="00AA"/>
  <outline>
    <contour>
      <point x="345" y="626" type="curve"/>
      <point x="283" y="333" type="line"/>
      <point x="188" y="315" type="line"/>
      <point x="192" y="334" type="line"/>
      <point x="174" y="328"/>
      <point x="158" y="326"/>
      <point x="143" y="326" type="curve" smooth="yes"/>
      <point x="76" y="326"/>
      <point x="37" y="370"/>
      <point x="37" y="435" type="curve" smooth="yes"/>
      <point x="37" y="546"/>
      <point x="135" y="661"/>
      <point x="240" y="661" type="curve" smooth="yes"/>
      <point x="265" y="661"/>
      <point x="311" y="651"/>
    </contour>
    <contour>
      <point x="243" y="568" type="line"/>
      <point x="236" y="570"/>
      <point x="231" y="571"/>
      <point x="221" y="571" type="curve" smooth="yes"/>
      <point x="171" y="571"/>
      <point x="130" y="505"/>
      <point x="130" y="454" type="curve" smooth="yes"/>
      <point x="130" y="430"/>
      <point x="141" y="416"/>
      <point x="160" y="416" type="curve" smooth="yes"/>
      <point x="177" y="416"/>
      <point x="198" y="426"/>
      <point x="213" y="433" type="curve"/>
    </contour>
  </outline>
</glyph>
<glyph name="guillemotleft" format="1">
  <advance width="635"/>
  <unicode hex="00AB"/>
  <outline>
    <contour>
      <point x="214" y="51" type="line"/>
      <point x="294" y="121" type="line"/>
      <point x="178" y="250" type="line"/>
      <point x="366" y="386" type="line"/>
      <point x="320" y="457" type="line"/>
      <point x="36" y="253" type="line"/>
    </contour>
    <contour>
      <point x="441" y="51" type="line"/>
      <point x="520" y="121" type="line"/>
      <point x="405" y="250" type="line"/>
      <point x="592" y="386" type="line"/>
      <point x="546" y="457" type="line"/>
      <point x="262" y="253" type="line"/>
    </contour>
  </outline>
</glyph>
<glyph name="uni00AD" format="1">
  <advance width="468"/>
  <unicode hex="00AD"/>
  <outline>
    <contour>
      <point x="398" y="301" type="line"/>
      <point x="85" y="301" type="line"/>
      <point x="48" y="206" type="line"/>
      <point x="360" y="206" type="line"/>
    </contour>
  </outline>
</glyph>
<glyph name="registered" format="1">
  <advance width="602"/>
  <unicode hex="00AE"/>
  <outline>
    <contour>
      <point x="259" y="177" type="curve" smooth="yes"/>
      <point x="422" y="177"/>
      <point x="588" y="330"/>
      <point x="588" y="503" type="curve" smooth="yes"/>
      <point x="588" y="626"/>
      <point x="501" y="718"/>
      <point x="374" y="718" type="curve" smooth="yes"/>
      <point x="211" y="718"/>
      <point x="46" y="563"/>
      <point x="46" y="389" type="curve" smooth="yes"/>
      <point x="46" y="268"/>
      <point x="133" y="177"/>
    </contour>
    <contour>
      <point x="355" y="630" type="curve" smooth="yes"/>
      <point x="440" y="630"/>
      <point x="498" y="568"/>
      <point x="498" y="486" type="curve" smooth="yes"/>
      <point x="498" y="368"/>
      <point x="387" y="265"/>
      <point x="278" y="265" type="curve" smooth="yes"/>
      <point x="194" y="265"/>
      <point x="135" y="326"/>
      <point x="135" y="407" type="curve" smooth="yes"/>
      <point x="135" y="525"/>
      <point x="246" y="630"/>
    </contour>
    <contour>
      <point x="373" y="425" type="line"/>
      <point x="418" y="440"/>
      <point x="460" y="469"/>
      <point x="460" y="516" type="curve" smooth="yes"/>
      <point x="460" y="558"/>
      <point x="421" y="583"/>
      <point x="350" y="583" type="curve" smooth="yes"/>
      <point x="264" y="583"/>
      <point x="259" y="566"/>
      <point x="250" y="541" type="curve" smooth="yes"/>
      <point x="172" y="331" type="line"/>
      <point x="255" y="338" type="line"/>
      <point x="276" y="391" type="line"/>
      <point x="360" y="323" type="line"/>
      <point x="427" y="382" type="line"/>
    </contour>
  </outline>
</glyph>
<glyph name="degree" format="1">
  <advance width="293"/>
  <unicode hex="00B0"/>
  <outline>
    <contour>
      <point x="181" y="455" type="curve" smooth="yes"/>
      <point x="112" y="455"/>
      <point x="65" y="503"/>
      <point x="65" y="568" type="curve" smooth="yes"/>
      <point x="65" y="661"/>
      <point x="154" y="742"/>
      <point x="242" y="742" type="curve" smooth="yes"/>
      <point x="311" y="742"/>
      <point x="359" y="693"/>
      <point x="359" y="628" type="curve" smooth="yes"/>
      <point x="359" y="536"/>
      <point x="269" y="455"/>
    </contour>
    <contour>
      <point x="224" y="655" type="curve" smooth="yes"/>
      <point x="190" y="655"/>
      <point x="154" y="622"/>
      <point x="154" y="586" type="curve" smooth="yes"/>
      <point x="154" y="561"/>
      <point x="174" y="541"/>
      <point x="200" y="541" type="curve" smooth="yes"/>
      <point x="232" y="541"/>
      <point x="270" y="574"/>
      <point x="270" y="609" type="curve" smooth="yes"/>
      <point x="270" y="635"/>
      <point x="250" y="655"/>
    </contour>
  </outline>
</glyph>
<glyph name="twosuperior" format="1">
  <advance width="263"/>
  <unicode hex="00B2"/>
  <outline>
    <contour>
      <point x="203" y="538" type="curve" smooth="yes"/>
      <point x="262" y="571"/>
      <point x="341" y="631"/>
      <point x="341" y="704" type="curve" smooth="yes"/>
      <point x="341" y="745"/>
      <point x="319" y="792"/>
      <point x="240" y="792" type="curve" smooth="yes"/>
      <point x="186" y="792"/>
      <point x="123" y="752"/>
      <point x="85" y="708" type="curve"/>
      <point x="131" y="638" type="line"/>
      <point x="171" y="687"/>
      <point x="202" y="705"/>
      <point x="228" y="705" type="curve" smooth="yes"/>
      <point x="241" y="705"/>
      <point x="253" y="698"/>
      <point x="253" y="685" type="curve" smooth="yes"/>
      <point x="253" y="667"/>
      <point x="228" y="643"/>
      <point x="171" y="610" type="curve" smooth="yes"/>
      <point x="96" y="566"/>
      <point x="54" y="527"/>
      <point x="36" y="442" type="curve" smooth="yes"/>
      <point x="27" y="399" type="line"/>
      <point x="276" y="399" type="line"/>
      <point x="308" y="486" type="line"/>
      <point x="140" y="486" type="line"/>
      <point x="152" y="507"/>
      <point x="171" y="519"/>
    </contour>
  </outline>
</glyph>
<glyph name="threesuperior" format="1">
  <advance width="262"/>
  <unicode hex="00B3"/>
  <outline>
    <contour>
      <point x="141" y="661" type="curve"/>
      <point x="95" y="724" type="line"/>
      <point x="128" y="752"/>
      <point x="182" y="789"/>
      <point x="236" y="789" type="curve" smooth="yes"/>
      <point x="298" y="789"/>
      <point x="341" y="754"/>
      <point x="341" y="706" type="curve" smooth="yes"/>
      <point x="341" y="674"/>
      <point x="315" y="634"/>
      <point x="275" y="617" type="curve"/>
      <point x="296" y="605"/>
      <point x="315" y="575"/>
      <point x="315" y="544" type="curve" smooth="yes"/>
      <point x="315" y="467"/>
      <point x="233" y="398"/>
      <point x="155" y="398" type="curve" smooth="yes"/>
      <point x="110" y="398"/>
      <point x="50" y="422"/>
      <point x="44" y="511" type="curve"/>
      <point x="137" y="547" type="line"/>
      <point x="136" y="543"/>
      <point x="136" y="540"/>
      <point x="136" y="537" type="curve" smooth="yes"/>
      <point x="136" y="503"/>
      <point x="151" y="485"/>
      <point x="174" y="485" type="curve" smooth="yes"/>
      <point x="203" y="485"/>
      <point x="227" y="507"/>
      <point x="227" y="534" type="curve" smooth="yes"/>
      <point x="227" y="554"/>
      <point x="205" y="574"/>
      <point x="153" y="574" type="curve" smooth="yes"/>
      <point x="140" y="574" type="line"/>
      <point x="150" y="636" type="line"/>
      <point x="183" y="636"/>
      <point x="252" y="664"/>
      <point x="252" y="691" type="curve" smooth="yes"/>
      <point x="252" y="699"/>
      <point x="244" y="703"/>
      <point x="230" y="703" type="curve" smooth="yes"/>
      <point x="202" y="703"/>
      <point x="176" y="691"/>
    </contour>
  </outline>
</glyph>
<glyph name="acute" format="1">
  <advance width="526"/>
  <unicode hex="00B4"/>
  <outline>
    <contour>
      <point x="190" y="570" type="line"/>
      <point x="248" y="510" type="line"/>
      <point x="461" y="638" type="line"/>
      <point x="393" y="711" type="line"/>
    </contour>
  </outline>
</glyph>
<glyph name="paragraph" format="1">
  <advance width="585"/>
  <unicode hex="00B6"/>
  <outline>
    <contour>
      <point x="451" y="666" type="line"/>
      <point x="430" y="665" type="line"/>
      <point x="411" y="564"/>
      <point x="355" y="301"/>
      <point x="205" y="-67" type="curve"/>
      <point x="117" y="-74" type="line"/>
      <point x="181" y="83"/>
      <point x="227" y="212"/>
      <point x="259" y="317" type="curve"/>
      <point x="179" y="320"/>
      <point x="81" y="341"/>
      <point x="81" y="451" type="curve" smooth="yes"/>
      <point x="81" y="637"/>
      <point x="289" y="734"/>
      <point x="456" y="763" type="curve"/>
    </contour>
    <contour>
      <point x="508" y="713" type="curve"/>
      <point x="593" y="720" type="line"/>
      <point x="587" y="673"/>
      <point x="545" y="391"/>
      <point x="358" y="-67" type="curve"/>
      <point x="269" y="-75" type="line"/>
      <point x="461" y="392"/>
      <point x="497" y="663"/>
    </contour>
  </outline>
</glyph>
<glyph name="cedilla" format="1">
  <advance width="526"/>
  <unicode hex="00B8"/>
  <outline>
    <contour>
      <point x="117" y="-54" type="line"/>
      <point x="150" y="-98" type="line"/>
      <point x="156" y="-93"/>
      <point x="167" y="-90"/>
      <point x="174" y="-90" type="curve" smooth="yes"/>
      <point x="192" y="-90"/>
      <point x="201" y="-97"/>
      <point x="201" y="-110" type="curve" smooth="yes"/>
      <point x="201" y="-128"/>
      <point x="185" y="-139"/>
      <point x="168" y="-139" type="curve" smooth="yes"/>
      <point x="154" y="-139"/>
      <point x="143" y="-132"/>
      <point x="139" y="-123" type="curve"/>
      <point x="88" y="-157" type="line"/>
      <point x="105" y="-186"/>
      <point x="125" y="-196"/>
      <point x="156" y="-196" type="curve" smooth="yes"/>
      <point x="214" y="-196"/>
      <point x="270" y="-159"/>
      <point x="270" y="-94" type="curve" smooth="yes"/>
      <point x="270" y="-54"/>
      <point x="239" y="-37"/>
      <point x="194" y="-33" type="curve"/>
      <point x="208" y="21" type="line"/>
      <point x="157" y="17" type="line"/>
    </contour>
  </outline>
</glyph>
<glyph name="ordmasculine" format="1">
  <advance width="311"/>
  <unicode hex="00BA"/>
  <outline>
    <contour>
      <point x="153" y="324" type="curve" smooth="yes"/>
      <point x="80" y="324"/>
      <point x="40" y="377"/>
      <point x="40" y="444" type="curve" smooth="yes"/>
      <point x="40" y="559"/>
      <point x="146" y="665"/>
      <point x="244" y="665" type="curve" smooth="yes"/>
      <point x="312" y="665"/>
      <point x="356" y="610"/>
      <point x="356" y="542" type="curve" smooth="yes"/>
      <point x="356" y="430"/>
      <point x="249" y="324"/>
    </contour>
    <contour>
      <point x="222" y="577" type="curve" smooth="yes"/>
      <point x="183" y="577"/>
      <point x="133" y="520"/>
      <point x="133" y="460" type="curve" smooth="yes"/>
      <point x="133" y="431"/>
      <point x="148" y="411"/>
      <point x="172" y="411" type="curve" smooth="yes"/>
      <point x="211" y="411"/>
      <point x="261" y="465"/>
      <point x="261" y="522" type="curve" smooth="yes"/>
      <point x="261" y="551"/>
      <point x="247" y="577"/>
    </contour>
  </outline>
</glyph>
<glyph name="questiondown" format="1">
  <advance width="527"/>
  <unicode hex="00BF"/>
  <outline>
    <contour>
      <point x="301" y="569" type="line"/>
      <point x="403" y="586" type="line"/>
      <point x="436" y="698" type="line"/>
      <point x="335" y="681" type="line"/>
    </contour>
    <contour>
      <point x="158" y="-1" type="curve" smooth="yes"/>
      <point x="267" y="-1"/>
      <point x="370" y="90"/>
      <point x="402" y="127" type="curve"/>
      <point x="347" y="198" type="line"/>
      <point x="337" y="186"/>
      <point x="261" y="94"/>
      <point x="175" y="94" type="curve" smooth="yes"/>
      <point x="106" y="94"/>
      <point x="79" y="132"/>
      <point x="79" y="177" type="curve" smooth="yes"/>
      <point x="79" y="251"/>
      <point x="141" y="291"/>
      <point x="194" y="331" type="curve" smooth="yes"/>
      <point x="364" y="458" type="line"/>
      <point x="334" y="544" type="line"/>
      <point x="147" y="403" type="line" smooth="yes"/>
      <point x="80" y="352"/>
      <point x="-18" y="283"/>
      <point x="-18" y="150" type="curve" smooth="yes"/>
      <point x="-18" y="56"/>
      <point x="44" y="-1"/>
    </contour>
  </outline>
</glyph>
<glyph name="AE" format="1">
  <advance width="1075"/>
  <unicode hex="00C6"/>
  <outline>
    <contour>
      <point x="157" y="215" type="line"/>
      <point x="-3" y="39" type="line"/>
      <point x="72" y="-6" type="line"/>
      <point x="304" y="246" type="line"/>
      <point x="480" y="281" type="line"/>
      <point x="421" y="0" type="line"/>
      <point x="895" y="0" type="line"/>
      <point x="951" y="99" type="line"/>
      <point x="541" y="99" type="line"/>
      <point x="584" y="304" type="line"/>
      <point x="921" y="304" type="line"/>
      <point x="971" y="402" type="line"/>
      <point x="605" y="402" type="line"/>
      <point x="643" y="582" type="line"/>
      <point x="1026" y="582" type="line"/>
      <point x="1064" y="681" type="line"/>
      <point x="586" y="681" type="line"/>
      <point x="268" y="334" type="line"/>
      <point x="159" y="313" type="line"/>
    </contour>
    <contour>
      <point x="501" y="379" type="line"/>
      <point x="410" y="361" type="line"/>
      <point x="523" y="484" type="line"/>
    </contour>
  </outline>
</glyph>
<glyph name="Ccedilla" format="1">
  <advance width="657"/>
  <unicode hex="00C7"/>
  <outline>
    <contour>
      <point x="207" y="-54" type="line"/>
      <point x="240" y="-98" type="line"/>
      <point x="246" y="-93"/>
      <point x="257" y="-90"/>
      <point x="264" y="-90" type="curve" smooth="yes"/>
      <point x="282" y="-90"/>
      <point x="291" y="-97"/>
      <point x="291" y="-110" type="curve" smooth="yes"/>
      <point x="291" y="-128"/>
      <point x="275" y="-139"/>
      <point x="258" y="-139" type="curve" smooth="yes"/>
      <point x="244" y="-139"/>
      <point x="233" y="-132"/>
      <point x="229" y="-123" type="curve"/>
      <point x="178" y="-157" type="line"/>
      <point x="195" y="-186"/>
      <point x="215" y="-196"/>
      <point x="246" y="-196" type="curve" smooth="yes"/>
      <point x="304" y="-196"/>
      <point x="360" y="-159"/>
      <point x="360" y="-94" type="curve" smooth="yes"/>
      <point x="360" y="-54"/>
      <point x="329" y="-37"/>
      <point x="284" y="-33" type="curve"/>
      <point x="293" y="0" type="line"/>
      <point x="393" y="4"/>
      <point x="497" y="60"/>
      <point x="571" y="149" type="curve"/>
      <point x="514" y="221" type="line"/>
      <point x="456" y="140"/>
      <point x="379" y="95"/>
      <point x="300" y="95" type="curve" smooth="yes"/>
      <point x="208" y="95"/>
      <point x="145" y="163"/>
      <point x="145" y="253" type="curve" smooth="yes"/>
      <point x="145" y="362"/>
      <point x="283" y="585"/>
      <point x="410" y="585" type="curve" smooth="yes"/>
      <point x="469" y="585"/>
      <point x="502" y="561"/>
      <point x="519" y="539" type="curve"/>
      <point x="511" y="502" type="line"/>
      <point x="600" y="502" type="line"/>
      <point x="635" y="665" type="line"/>
      <point x="546" y="665" type="line"/>
      <point x="543" y="651" type="line"/>
      <point x="512" y="667"/>
      <point x="475" y="681"/>
      <point x="435" y="681" type="curve" smooth="yes"/>
      <point x="225" y="681"/>
      <point x="48" y="384"/>
      <point x="48" y="229" type="curve" smooth="yes"/>
      <point x="48" y="109"/>
      <point x="124" y="19"/>
      <point x="239" y="2" type="curve"/>
    </contour>
  </outline>
</glyph>
<glyph name="Egrave" format="1">
  <advance width="637"/>
  <unicode hex="00C8"/>
  <outline>
    <contour>
      <point x="512" y="750" type="line"/>
      <point x="398" y="912" type="line"/>
      <point x="287" y="856" type="line"/>
      <point x="419" y="700" type="line"/>
    </contour>
    <contour>
      <point x="126" y="99" type="line"/>
      <point x="169" y="304" type="line"/>
      <point x="506" y="304" type="line"/>
      <point x="556" y="402" type="line"/>
      <point x="190" y="402" type="line"/>
      <point x="228" y="582" type="line"/>
      <point x="611" y="582" type="line"/>
      <point x="649" y="681" type="line"/>
      <point x="150" y="681" type="line"/>
      <point x="6" y="0" type="line"/>
      <point x="480" y="0" type="line"/>
      <point x="536" y="99" type="line"/>
    </contour>
  </outline>
</glyph>
<glyph name="Ecircumflex" format="1">
  <advance width="637"/>
  <unicode hex="00CA"/>
  <outline>
    <contour>
      <point x="299" y="700" type="line"/>
      <point x="425" y="783" type="line"/>
      <point x="501" y="701" type="line"/>
      <point x="578" y="761" type="line"/>
      <point x="455" y="895" type="line"/>
      <point x="254" y="766" type="line"/>
    </contour>
    <contour>
      <point x="126" y="99" type="line"/>
      <point x="169" y="304" type="line"/>
      <point x="506" y="304" type="line"/>
      <point x="556" y="402" type="line"/>
      <point x="190" y="402" type="line"/>
      <point x="228" y="582" type="line"/>
      <point x="611" y="582" type="line"/>
      <point x="649" y="681" type="line"/>
      <point x="150" y="681" type="line"/>
      <point x="6" y="0" type="line"/>
      <point x="480" y="0" type="line"/>
      <point x="536" y="99" type="line"/>
    </contour>
  </outline>
</glyph>
<glyph name="Edieresis" format="1">
  <advance width="637"/>
  <unicode hex="00CB"/>
  <outline>
    <contour>
      <point x="414" y="833" type="line"/>
      <point x="295" y="818" type="line"/>
      <point x="257" y="704" type="line"/>
      <point x="377" y="719" type="line"/>
    </contour>
    <contour>
      <point x="584" y="833" type="line"/>
      <point x="465" y="818" type="line"/>
      <point x="427" y="704" type="line"/>
      <point x="547" y="719" type="line"/>
    </contour>
    <contour>
      <point x="126" y="99" type="line"/>
      <point x="169" y="304" type="line"/>
      <point x="506" y="304" type="line"/>
      <point x="556" y="402" type="line"/>
      <point x="190" y="402" type="line"/>
      <point x="228" y="582" type="line"/>
      <point x="611" y="582" type="line"/>
      <point x="649" y="681" type="line"/>
      <point x="150" y="681" type="line"/>
      <point x="6" y="0" type="line"/>
      <point x="480" y="0" type="line"/>
      <point x="536" y="99" type="line"/>
    </contour>
  </outline>
</glyph>
<glyph name="Eth" format="1">
  <advance width="702"/>
  <unicode hex="00D0"/>
  <outline>
    <contour>
      <point x="61" y="7" type="curve"/>
      <point x="117" y="271" type="line"/>
      <point x="20" y="271" type="line"/>
      <point x="59" y="373" type="line"/>
      <point x="138" y="373" type="line"/>
      <point x="204" y="680" type="line"/>
      <point x="251" y="680" type="line" smooth="yes"/>
      <point x="523" y="680"/>
      <point x="637" y="549"/>
      <point x="637" y="375" type="curve" smooth="yes"/>
      <point x="637" y="144"/>
      <point x="458" y="-14"/>
      <point x="212" y="-14" type="curve" smooth="yes"/>
      <point x="176" y="-14"/>
      <point x="109" y="-7"/>
    </contour>
    <contour>
      <point x="411" y="123" type="curve" smooth="yes"/>
      <point x="484" y="164"/>
      <point x="538" y="255"/>
      <point x="538" y="368" type="curve" smooth="yes"/>
      <point x="538" y="509"/>
      <point x="414" y="583"/>
      <point x="280" y="583" type="curve"/>
      <point x="235" y="373" type="line"/>
      <point x="343" y="373" type="line"/>
      <point x="304" y="271" type="line"/>
      <point x="214" y="271" type="line"/>
      <point x="175" y="86" type="line"/>
      <point x="190" y="84"/>
      <point x="212" y="83"/>
      <point x="232" y="83" type="curve" smooth="yes"/>
      <point x="281" y="83"/>
      <point x="352" y="89"/>
    </contour>
  </outline>
</glyph>
<glyph name="Ntilde" format="1">
  <advance width="641"/>
  <unicode hex="00D1"/>
  <outline>
    <contour>
      <point x="549" y="668" type="line"/>
      <point x="447" y="184" type="line"/>
      <point x="239" y="685" type="line"/>
      <point x="146" y="660" type="line"/>
      <point x="6" y="-4" type="line"/>
      <point x="106" y="15" type="line"/>
      <point x="206" y="489" type="line"/>
      <point x="409" y="-3" type="line"/>
      <point x="507" y="16" type="line"/>
      <point x="649" y="686" type="line"/>
    </contour>
    <contour>
      <point x="572" y="870" type="line"/>
      <point x="547" y="816"/>
      <point x="516" y="793"/>
      <point x="495" y="793" type="curve" smooth="yes"/>
      <point x="482" y="793"/>
      <point x="470" y="808"/>
      <point x="461" y="827" type="curve" smooth="yes"/>
      <point x="445" y="860"/>
      <point x="425" y="877"/>
      <point x="384" y="877" type="curve" smooth="yes"/>
      <point x="306" y="877"/>
      <point x="251" y="809"/>
      <point x="224" y="753" type="curve"/>
      <point x="282" y="720" type="line"/>
      <point x="286" y="732"/>
      <point x="318" y="788"/>
      <point x="353" y="788" type="curve" smooth="yes"/>
      <point x="368" y="788"/>
      <point x="376" y="776"/>
      <point x="388" y="753" type="curve" smooth="yes"/>
      <point x="403" y="722"/>
      <point x="426" y="705"/>
      <point x="458" y="705" type="curve" smooth="yes"/>
      <point x="559" y="705"/>
      <point x="615" y="807"/>
      <point x="633" y="838" type="curve"/>
    </contour>
  </outline>
</glyph>
<glyph name="Ograve" format="1">
  <advance width="686"/>
  <unicode hex="00D2"/>
  <outline>
    <contour>
      <point x="567" y="750" type="line"/>
      <point x="453" y="912" type="line"/>
      <point x="341" y="856" type="line"/>
      <point x="473" y="700" type="line"/>
    </contour>
    <contour>
      <point x="257" y="0" type="curve" smooth="yes"/>
      <point x="433" y="0"/>
      <point x="639" y="217"/>
      <point x="639" y="449" type="curve" smooth="yes"/>
      <point x="639" y="583"/>
      <point x="564" y="684"/>
      <point x="441" y="684" type="curve" smooth="yes"/>
      <point x="265" y="684"/>
      <point x="60" y="466"/>
      <point x="60" y="234" type="curve" smooth="yes"/>
      <point x="60" y="101"/>
      <point x="133" y="0"/>
    </contour>
    <contour>
      <point x="415" y="589" type="curve" smooth="yes"/>
      <point x="495" y="589"/>
      <point x="539" y="513"/>
      <point x="539" y="423" type="curve" smooth="yes"/>
      <point x="539" y="254"/>
      <point x="391" y="95"/>
      <point x="277" y="95" type="curve" smooth="yes"/>
      <point x="202" y="95"/>
      <point x="158" y="162"/>
      <point x="158" y="252" type="curve" smooth="yes"/>
      <point x="158" y="431"/>
      <point x="302" y="589"/>
    </contour>
  </outline>
</glyph>
<glyph name="Oacute" format="1">
  <advance width="686"/>
  <unicode hex="00D3"/>
  <outline>
    <contour>
      <point x="341" y="772" type="line"/>
      <point x="401" y="710" type="line"/>
      <point x="617" y="831" type="line"/>
      <point x="546" y="906" type="line"/>
    </contour>
    <contour>
      <point x="257" y="0" type="curve" smooth="yes"/>
      <point x="433" y="0"/>
      <point x="639" y="217"/>
      <point x="639" y="449" type="curve" smooth="yes"/>
      <point x="639" y="583"/>
      <point x="564" y="684"/>
      <point x="441" y="684" type="curve" smooth="yes"/>
      <point x="265" y="684"/>
      <point x="60" y="466"/>
      <point x="60" y="234" type="curve" smooth="yes"/>
      <point x="60" y="101"/>
      <point x="133" y="0"/>
    </contour>
    <contour>
      <point x="415" y="589" type="curve" smooth="yes"/>
      <point x="495" y="589"/>
      <point x="539" y="513"/>
      <point x="539" y="423" type="curve" smooth="yes"/>
      <point x="539" y="254"/>
      <point x="391" y="95"/>
      <point x="277" y="95" type="curve" smooth="yes"/>
      <point x="202" y="95"/>
      <point x="158" y="162"/>
      <point x="158" y="252" type="curve" smooth="yes"/>
      <point x="158" y="431"/>
      <point x="302" y="589"/>
    </contour>
  </outline>
</glyph>
<glyph name="Ocircumflex" format="1">
  <advance width="686"/>
  <unicode hex="00D4"/>
  <outline>
    <contour>
      <point x="345" y="695" type="line"/>
      <point x="472" y="778" type="line"/>
      <point x="547" y="696" type="line"/>
      <point x="626" y="761" type="line"/>
      <point x="503" y="895" type="line"/>
      <point x="301" y="766" type="line"/>
    </contour>
    <contour>
      <point x="257" y="0" type="curve" smooth="yes"/>
      <point x="433" y="0"/>
      <point x="639" y="217"/>
      <point x="639" y="449" type="curve" smooth="yes"/>
      <point x="639" y="583"/>
      <point x="564" y="684"/>
      <point x="441" y="684" type="curve" smooth="yes"/>
      <point x="265" y="684"/>
      <point x="60" y="466"/>
      <point x="60" y="234" type="curve" smooth="yes"/>
      <point x="60" y="101"/>
      <point x="133" y="0"/>
    </contour>
    <contour>
      <point x="415" y="589" type="curve" smooth="yes"/>
      <point x="495" y="589"/>
      <point x="539" y="513"/>
      <point x="539" y="423" type="curve" smooth="yes"/>
      <point x="539" y="254"/>
      <point x="391" y="95"/>
      <point x="277" y="95" type="curve" smooth="yes"/>
      <point x="202" y="95"/>
      <point x="158" y="162"/>
      <point x="158" y="252" type="curve" smooth="yes"/>
      <point x="158" y="431"/>
      <point x="302" y="589"/>
    </contour>
  </outline>
</glyph>
<glyph name="Otilde" format="1">
  <advance width="686"/>
  <unicode hex="00D5"/>
  <outline>
    <contour>
      <point x="257" y="0" type="curve" smooth="yes"/>
      <point x="133" y="0"/>
      <point x="60" y="101"/>
      <point x="60" y="234" type="curve" smooth="yes"/>
      <point x="60" y="466"/>
      <point x="265" y="684"/>
      <point x="441" y="684" type="curve" smooth="yes"/>
      <point x="564" y="684"/>
      <point x="639" y="583"/>
      <point x="639" y="449" type="curve" smooth="yes"/>
      <point x="639" y="217"/>
      <point x="433" y="0"/>
    </contour>
    <contour>
      <point x="415" y="589" type="curve" smooth="yes"/>
      <point x="302" y="589"/>
      <point x="158" y="431"/>
      <point x="158" y="252" type="curve" smooth="yes"/>
      <point x="158" y="162"/>
      <point x="202" y="95"/>
      <point x="277" y="95" type="curve" smooth="yes"/>
      <point x="391" y="95"/>
      <point x="539" y="254"/>
      <point x="539" y="423" type="curve" smooth="yes"/>
      <point x="539" y="513"/>
      <point x="495" y="589"/>
    </contour>
    <contour>
      <point x="610" y="870" type="curve"/>
      <point x="671" y="838" type="line"/>
      <point x="653" y="807"/>
      <point x="597" y="705"/>
      <point x="496" y="705" type="curve" smooth="yes"/>
      <point x="464" y="705"/>
      <point x="441" y="722"/>
      <point x="426" y="753" type="curve" smooth="yes"/>
      <point x="414" y="776"/>
      <point x="406" y="788"/>
      <point x="391" y="788" type="curve" smooth="yes"/>
      <point x="356" y="788"/>
      <point x="324" y="732"/>
      <point x="320" y="720" type="curve"/>
      <point x="262" y="753" type="line"/>
      <point x="289" y="809"/>
      <point x="344" y="877"/>
      <point x="422" y="877" type="curve" smooth="yes"/>
      <point x="463" y="877"/>
      <point x="483" y="860"/>
      <point x="499" y="827" type="curve" smooth="yes"/>
      <point x="508" y="808"/>
      <point x="520" y="793"/>
      <point x="533" y="793" type="curve" smooth="yes"/>
      <point x="554" y="793"/>
      <point x="585" y="816"/>
    </contour>
  </outline>
</glyph>
<glyph name="multiply" format="1">
  <advance width="380"/>
  <unicode hex="00D7"/>
  <outline>
    <contour>
      <point x="247" y="253" type="line"/>
      <point x="342" y="330" type="line"/>
      <point x="289" y="397" type="line"/>
      <point x="195" y="319" type="line"/>
      <point x="139" y="390" type="line"/>
      <point x="59" y="324" type="line"/>
      <point x="115" y="253" type="line"/>
      <point x="18" y="174" type="line"/>
      <point x="70" y="108" type="line"/>
      <point x="166" y="186" type="line"/>
      <point x="227" y="109" type="line"/>
      <point x="308" y="176" type="line"/>
    </contour>
  </outline>
</glyph>
<glyph name="Oslash" format="1">
  <advance width="686"/>
  <unicode hex="00D8"/>
  <outline>
    <contour>
      <point x="657" y="697" type="line"/>
      <point x="590" y="611" type="line"/>
      <point x="624" y="570"/>
      <point x="638" y="514"/>
      <point x="638" y="453" type="curve" smooth="yes"/>
      <point x="638" y="219"/>
      <point x="436" y="-1"/>
      <point x="256" y="-1" type="curve" smooth="yes"/>
      <point x="217" y="-1"/>
      <point x="176" y="12"/>
      <point x="147" y="33" type="curve"/>
      <point x="91" y="-39" type="line"/>
      <point x="17" y="7" type="line"/>
      <point x="89" y="100" type="line"/>
      <point x="68" y="136"/>
      <point x="58" y="178"/>
      <point x="58" y="225" type="curve" smooth="yes"/>
      <point x="58" y="460"/>
      <point x="262" y="683"/>
      <point x="441" y="683" type="curve" smooth="yes"/>
      <point x="471" y="683"/>
      <point x="499" y="677"/>
      <point x="523" y="666" type="curve"/>
      <point x="584" y="746" type="line"/>
    </contour>
    <contour>
      <point x="163" y="197" type="curve"/>
      <point x="457" y="579" type="line"/>
      <point x="444" y="585"/>
      <point x="429" y="588"/>
      <point x="414" y="588" type="curve" smooth="yes"/>
      <point x="300" y="588"/>
      <point x="157" y="428"/>
      <point x="157" y="249" type="curve" smooth="yes"/>
      <point x="157" y="230"/>
      <point x="159" y="213"/>
    </contour>
    <contour>
      <point x="276" y="94" type="curve" smooth="yes"/>
      <point x="425" y="94"/>
      <point x="538" y="301"/>
      <point x="538" y="419" type="curve" smooth="yes"/>
      <point x="538" y="455"/>
      <point x="531" y="489"/>
      <point x="519" y="517" type="curve"/>
      <point x="209" y="116" type="line"/>
      <point x="228" y="102"/>
      <point x="250" y="94"/>
    </contour>
  </outline>
</glyph>
<glyph name="Ucircumflex" format="1">
  <advance width="710"/>
  <unicode hex="00DB"/>
  <outline>
    <contour>
      <point x="335" y="690" type="line"/>
      <point x="463" y="773" type="line"/>
      <point x="535" y="691" type="line"/>
      <point x="613" y="751" type="line"/>
      <point x="492" y="895" type="line"/>
      <point x="289" y="756" type="line"/>
    </contour>
    <contour>
      <point x="288" y="0" type="curve" smooth="yes"/>
      <point x="548" y="0"/>
      <point x="620" y="240"/>
      <point x="668" y="467" type="curve" smooth="yes"/>
      <point x="682" y="536"/>
      <point x="707" y="662"/>
      <point x="711" y="685" type="curve"/>
      <point x="608" y="666" type="line"/>
      <point x="602" y="633"/>
      <point x="576" y="502"/>
      <point x="560" y="425" type="curve" smooth="yes"/>
      <point x="528" y="276"/>
      <point x="476" y="92"/>
      <point x="307" y="92" type="curve" smooth="yes"/>
      <point x="206" y="92"/>
      <point x="174" y="157"/>
      <point x="174" y="249" type="curve" smooth="yes"/>
      <point x="174" y="364"/>
      <point x="236" y="606"/>
      <point x="255" y="685" type="curve"/>
      <point x="152" y="668" type="line"/>
      <point x="129" y="562"/>
      <point x="73" y="346"/>
      <point x="73" y="226" type="curve" smooth="yes"/>
      <point x="73" y="89"/>
      <point x="126" y="0"/>
    </contour>
  </outline>
</glyph>
<glyph name="Udieresis" format="1">
  <advance width="710"/>
  <unicode hex="00DC"/>
  <outline>
    <contour>
      <point x="454" y="833" type="line"/>
      <point x="335" y="818" type="line"/>
      <point x="297" y="704" type="line"/>
      <point x="417" y="719" type="line"/>
    </contour>
    <contour>
      <point x="623" y="833" type="line"/>
      <point x="504" y="818" type="line"/>
      <point x="466" y="704" type="line"/>
      <point x="586" y="719" type="line"/>
    </contour>
    <contour>
      <point x="288" y="0" type="curve" smooth="yes"/>
      <point x="548" y="0"/>
      <point x="620" y="240"/>
      <point x="668" y="467" type="curve" smooth="yes"/>
      <point x="682" y="536"/>
      <point x="707" y="662"/>
      <point x="711" y="685" type="curve"/>
      <point x="608" y="666" type="line"/>
      <point x="602" y="633"/>
      <point x="576" y="502"/>
      <point x="560" y="425" type="curve" smooth="yes"/>
      <point x="528" y="276"/>
      <point x="476" y="92"/>
      <point x="307" y="92" type="curve" smooth="yes"/>
      <point x="206" y="92"/>
      <point x="174" y="157"/>
      <point x="174" y="249" type="curve" smooth="yes"/>
      <point x="174" y="364"/>
      <point x="236" y="606"/>
      <point x="255" y="685" type="curve"/>
      <point x="152" y="668" type="line"/>
      <point x="129" y="562"/>
      <point x="73" y="346"/>
      <point x="73" y="226" type="curve" smooth="yes"/>
      <point x="73" y="89"/>
      <point x="126" y="0"/>
    </contour>
  </outline>
</glyph>
<glyph name="Thorn" format="1">
  <advance width="532"/>
  <unicode hex="00DE"/>
  <outline>
    <contour>
      <point x="146" y="670" type="line"/>
      <point x="248" y="691" type="line"/>
      <point x="225" y="583" type="line"/>
      <point x="350" y="581"/>
      <point x="518" y="561"/>
      <point x="518" y="421" type="curve" smooth="yes"/>
      <point x="518" y="205"/>
      <point x="278" y="146"/>
      <point x="128" y="135" type="curve"/>
      <point x="103" y="16" type="line"/>
      <point x="2" y="-6" type="line"/>
    </contour>
    <contour>
      <point x="150" y="234" type="line"/>
      <point x="295" y="245"/>
      <point x="415" y="299"/>
      <point x="415" y="391" type="curve" smooth="yes"/>
      <point x="415" y="453"/>
      <point x="325" y="481"/>
      <point x="205" y="486" type="curve"/>
    </contour>
  </outline>
</glyph>
<glyph name="aacute" format="1">
  <advance width="530"/>
  <unicode hex="00E1"/>
  <outline>
    <contour>
      <point x="213" y="600" type="line"/>
      <point x="414" y="731" type="line"/>
      <point x="482" y="658" type="line"/>
      <point x="271" y="540" type="line"/>
    </contour>
    <contour>
      <point x="490" y="466" type="curve"/>
      <point x="393" y="13" type="line"/>
      <point x="293" y="-5" type="line"/>
      <point x="302" y="34" type="line"/>
      <point x="266" y="18"/>
      <point x="227" y="6"/>
      <point x="186" y="6" type="curve" smooth="yes"/>
      <point x="93" y="6"/>
      <point x="33" y="69"/>
      <point x="33" y="166" type="curve" smooth="yes"/>
      <point x="33" y="312"/>
      <point x="168" y="512"/>
      <point x="338" y="512" type="curve" smooth="yes"/>
      <point x="392" y="512"/>
      <point x="444" y="492"/>
    </contour>
    <contour>
      <point x="323" y="417" type="curve" smooth="yes"/>
      <point x="218" y="417"/>
      <point x="133" y="292"/>
      <point x="133" y="189" type="curve" smooth="yes"/>
      <point x="133" y="145"/>
      <point x="151" y="102"/>
      <point x="205" y="102" type="curve" smooth="yes"/>
      <point x="245" y="102"/>
      <point x="295" y="126"/>
      <point x="323" y="143" type="curve"/>
      <point x="382" y="404" type="line"/>
      <point x="367" y="412"/>
      <point x="342" y="417"/>
    </contour>
  </outline>
</glyph>
<glyph name="atilde" format="1">
  <advance width="539"/>
  <unicode hex="00E3"/>
  <outline>
    <contour>
      <point x="490" y="466" type="line"/>
      <point x="444" y="492"/>
      <point x="392" y="512"/>
      <point x="338" y="512" type="curve" smooth="yes"/>
      <point x="168" y="512"/>
      <point x="33" y="312"/>
      <point x="33" y="166" type="curve" smooth="yes"/>
      <point x="33" y="69"/>
      <point x="93" y="6"/>
      <point x="186" y="6" type="curve" smooth="yes"/>
      <point x="227" y="6"/>
      <point x="266" y="18"/>
      <point x="302" y="34" type="curve"/>
      <point x="293" y="-5" type="line"/>
      <point x="393" y="13" type="line"/>
    </contour>
    <contour>
      <point x="323" y="417" type="curve" smooth="yes"/>
      <point x="342" y="417"/>
      <point x="367" y="412"/>
      <point x="382" y="404" type="curve"/>
      <point x="323" y="143" type="line"/>
      <point x="295" y="126"/>
      <point x="245" y="102"/>
      <point x="205" y="102" type="curve" smooth="yes"/>
      <point x="151" y="102"/>
      <point x="133" y="145"/>
      <point x="133" y="189" type="curve" smooth="yes"/>
      <point x="133" y="292"/>
      <point x="218" y="417"/>
    </contour>
    <contour>
      <point x="489" y="701" type="line"/>
      <point x="464" y="647"/>
      <point x="433" y="624"/>
      <point x="412" y="624" type="curve" smooth="yes"/>
      <point x="399" y="624"/>
      <point x="387" y="639"/>
      <point x="378" y="658" type="curve" smooth="yes"/>
      <point x="362" y="691"/>
      <point x="342" y="708"/>
      <point x="301" y="708" type="curve" smooth="yes"/>
      <point x="223" y="708"/>
      <point x="168" y="640"/>
      <point x="141" y="584" type="curve"/>
      <point x="199" y="551" type="line"/>
      <point x="203" y="563"/>
      <point x="235" y="619"/>
      <point x="270" y="619" type="curve" smooth="yes"/>
      <point x="285" y="619"/>
      <point x="293" y="607"/>
      <point x="305" y="584" type="curve" smooth="yes"/>
      <point x="320" y="553"/>
      <point x="343" y="536"/>
      <point x="375" y="536" type="curve" smooth="yes"/>
      <point x="476" y="536"/>
      <point x="532" y="638"/>
      <point x="550" y="669" type="curve"/>
    </contour>
  </outline>
</glyph>
<glyph name="ae" format="1">
  <advance width="890"/>
  <unicode hex="00E6"/>
  <outline>
    <contour>
      <point x="550" y="0" type="curve" smooth="yes"/>
      <point x="614" y="0"/>
      <point x="689" y="33"/>
      <point x="758" y="93" type="curve"/>
      <point x="705" y="156" type="line"/>
      <point x="657" y="115"/>
      <point x="610" y="92"/>
      <point x="569" y="92" type="curve" smooth="yes"/>
      <point x="520" y="92"/>
      <point x="479" y="122"/>
      <point x="460" y="158" type="curve"/>
      <point x="816" y="335" type="line"/>
      <point x="809" y="426"/>
      <point x="748" y="502"/>
      <point x="656" y="502" type="curve" smooth="yes"/>
      <point x="598" y="502"/>
      <point x="541" y="481"/>
      <point x="492" y="438" type="curve"/>
      <point x="499" y="466" type="line"/>
      <point x="453" y="492"/>
      <point x="400" y="512"/>
      <point x="347" y="512" type="curve" smooth="yes"/>
      <point x="178" y="512"/>
      <point x="41" y="313"/>
      <point x="41" y="167" type="curve" smooth="yes"/>
      <point x="41" y="69"/>
      <point x="101" y="6"/>
      <point x="195" y="6" type="curve" smooth="yes"/>
      <point x="235" y="6"/>
      <point x="274" y="18"/>
      <point x="310" y="34" type="curve"/>
      <point x="301" y="-5" type="line"/>
      <point x="402" y="13" type="line"/>
      <point x="411" y="54" type="line"/>
      <point x="445" y="21"/>
      <point x="494" y="0"/>
    </contour>
    <contour>
      <point x="331" y="417" type="curve" smooth="yes"/>
      <point x="350" y="417"/>
      <point x="375" y="409"/>
      <point x="391" y="404" type="curve"/>
      <point x="331" y="143" type="line"/>
      <point x="304" y="126"/>
      <point x="253" y="102"/>
      <point x="213" y="102" type="curve" smooth="yes"/>
      <point x="160" y="102"/>
      <point x="142" y="144"/>
      <point x="142" y="188" type="curve" smooth="yes"/>
      <point x="142" y="291"/>
      <point x="226" y="417"/>
    </contour>
    <contour>
      <point x="452" y="247" type="line"/>
      <point x="470" y="334"/>
      <point x="548" y="410"/>
      <point x="638" y="410" type="curve" smooth="yes"/>
      <point x="664" y="410"/>
      <point x="690" y="396"/>
      <point x="704" y="375" type="curve"/>
    </contour>
  </outline>
</glyph>
<glyph name="ccedilla" format="1">
  <advance width="533"/>
  <unicode hex="00E7"/>
  <outline>
    <contour>
      <point x="127" y="-54" type="line"/>
      <point x="161" y="6" type="line"/>
      <point x="86" y="26"/>
      <point x="34" y="91"/>
      <point x="34" y="174" type="curve" smooth="yes"/>
      <point x="34" y="279"/>
      <point x="163" y="502"/>
      <point x="325" y="502" type="curve" smooth="yes"/>
      <point x="390" y="502"/>
      <point x="442" y="470"/>
      <point x="474" y="411" type="curve"/>
      <point x="389" y="342" type="line"/>
      <point x="373" y="386"/>
      <point x="341" y="409"/>
      <point x="307" y="409" type="curve" smooth="yes"/>
      <point x="213" y="409"/>
      <point x="129" y="257"/>
      <point x="129" y="189" type="curve" smooth="yes"/>
      <point x="129" y="112"/>
      <point x="199" y="93"/>
      <point x="235" y="93" type="curve" smooth="yes"/>
      <point x="286" y="93"/>
      <point x="339" y="129"/>
      <point x="382" y="186" type="curve"/>
      <point x="439" y="114" type="line"/>
      <point x="381" y="47"/>
      <point x="302" y="3"/>
      <point x="224" y="0" type="curve" smooth="yes"/>
      <point x="213" y="0" type="line"/>
      <point x="204" y="-33" type="line"/>
      <point x="249" y="-37"/>
      <point x="280" y="-54"/>
      <point x="280" y="-94" type="curve" smooth="yes"/>
      <point x="280" y="-159"/>
      <point x="224" y="-196"/>
      <point x="166" y="-196" type="curve" smooth="yes"/>
      <point x="135" y="-196"/>
      <point x="115" y="-186"/>
      <point x="98" y="-157" type="curve"/>
      <point x="149" y="-123" type="line"/>
      <point x="153" y="-132"/>
      <point x="164" y="-139"/>
      <point x="178" y="-139" type="curve" smooth="yes"/>
      <point x="195" y="-139"/>
      <point x="211" y="-128"/>
      <point x="211" y="-110" type="curve" smooth="yes"/>
      <point x="211" y="-97"/>
      <point x="202" y="-90"/>
      <point x="184" y="-90" type="curve" smooth="yes"/>
      <point x="177" y="-90"/>
      <point x="166" y="-93"/>
      <point x="160" y="-98" type="curve"/>
    </contour>
  </outline>
</glyph>
<glyph name="edieresis" format="1">
  <advance width="553"/>
  <unicode hex="00EB"/>
  <outline>
    <contour>
      <point x="346" y="672" type="line"/>
      <point x="230" y="658" type="line"/>
      <point x="193" y="546" type="line"/>
      <point x="311" y="561" type="line"/>
    </contour>
    <contour>
      <point x="511" y="672" type="line"/>
      <point x="396" y="658" type="line"/>
      <point x="359" y="546" type="line"/>
      <point x="476" y="561" type="line"/>
    </contour>
    <contour>
      <point x="236" y="0" type="curve" smooth="yes"/>
      <point x="300" y="0"/>
      <point x="375" y="33"/>
      <point x="444" y="93" type="curve"/>
      <point x="391" y="156" type="line"/>
      <point x="343" y="115"/>
      <point x="296" y="92"/>
      <point x="255" y="92" type="curve" smooth="yes"/>
      <point x="206" y="92"/>
      <point x="165" y="122"/>
      <point x="146" y="158" type="curve"/>
      <point x="502" y="335" type="line"/>
      <point x="495" y="426"/>
      <point x="433" y="502"/>
      <point x="342" y="502" type="curve" smooth="yes"/>
      <point x="189" y="502"/>
      <point x="40" y="357"/>
      <point x="40" y="197" type="curve" smooth="yes"/>
      <point x="40" y="85"/>
      <point x="119" y="0"/>
    </contour>
    <contour>
      <point x="137" y="247" type="line"/>
      <point x="155" y="334"/>
      <point x="233" y="410"/>
      <point x="323" y="410" type="curve" smooth="yes"/>
      <point x="349" y="410"/>
      <point x="375" y="396"/>
      <point x="389" y="375" type="curve"/>
    </contour>
  </outline>
</glyph>
<glyph name="igrave" format="1">
  <advance width="271"/>
  <unicode hex="00EC"/>
  <outline>
    <contour>
      <point x="302" y="579" type="line"/>
      <point x="190" y="737" type="line"/>
      <point x="81" y="682" type="line"/>
      <point x="210" y="530" type="line"/>
    </contour>
    <contour>
      <point x="124" y="489" type="line"/>
      <point x="19" y="-5" type="line"/>
      <point x="123" y="12" type="line"/>
      <point x="228" y="505" type="line"/>
    </contour>
  </outline>
</glyph>
<glyph name="iacute" format="1">
  <advance width="259"/>
  <unicode hex="00ED"/>
  <outline>
    <contour>
      <point x="89" y="600" type="line"/>
      <point x="290" y="731" type="line"/>
      <point x="358" y="658" type="line"/>
      <point x="147" y="540" type="line"/>
    </contour>
    <contour>
      <point x="115" y="489" type="line"/>
      <point x="218" y="505" type="line"/>
      <point x="113" y="12" type="line"/>
      <point x="10" y="-5" type="line"/>
    </contour>
  </outline>
</glyph>
<glyph name="ntilde" format="1">
  <advance width="562"/>
  <unicode hex="00F1"/>
  <outline>
    <contour>
      <point x="324" y="-5" type="line"/>
      <point x="424" y="15" type="line"/>
      <point x="446" y="127" type="line" smooth="yes"/>
      <point x="470" y="249"/>
      <point x="488" y="326"/>
      <point x="487" y="386" type="curve" smooth="yes"/>
      <point x="485" y="463"/>
      <point x="445" y="501"/>
      <point x="373" y="501" type="curve" smooth="yes"/>
      <point x="307" y="501"/>
      <point x="240" y="464"/>
      <point x="189" y="408" type="curve"/>
      <point x="210" y="507" type="line"/>
      <point x="110" y="489" type="line"/>
      <point x="5" y="-5" type="line"/>
      <point x="104" y="13" type="line"/>
      <point x="131" y="135" type="line" smooth="yes"/>
      <point x="144" y="193"/>
      <point x="179" y="266"/>
      <point x="217" y="319" type="curve"/>
      <point x="275" y="394"/>
      <point x="319" y="406"/>
      <point x="351" y="406" type="curve" smooth="yes"/>
      <point x="379" y="406"/>
      <point x="389" y="380"/>
      <point x="389" y="343" type="curve" smooth="yes"/>
      <point x="389" y="300"/>
      <point x="377" y="239"/>
      <point x="359" y="157" type="curve" smooth="yes"/>
    </contour>
    <contour>
      <point x="512" y="701" type="line"/>
      <point x="487" y="647"/>
      <point x="456" y="624"/>
      <point x="435" y="624" type="curve" smooth="yes"/>
      <point x="422" y="624"/>
      <point x="410" y="639"/>
      <point x="401" y="658" type="curve" smooth="yes"/>
      <point x="385" y="691"/>
      <point x="365" y="708"/>
      <point x="324" y="708" type="curve" smooth="yes"/>
      <point x="246" y="708"/>
      <point x="191" y="640"/>
      <point x="164" y="584" type="curve"/>
      <point x="222" y="551" type="line"/>
      <point x="226" y="563"/>
      <point x="258" y="619"/>
      <point x="293" y="619" type="curve" smooth="yes"/>
      <point x="308" y="619"/>
      <point x="316" y="607"/>
      <point x="328" y="584" type="curve" smooth="yes"/>
      <point x="343" y="553"/>
      <point x="366" y="536"/>
      <point x="398" y="536" type="curve" smooth="yes"/>
      <point x="499" y="536"/>
      <point x="555" y="638"/>
      <point x="573" y="669" type="curve"/>
    </contour>
  </outline>
</glyph>
<glyph name="ograve" format="1">
  <advance width="561"/>
  <unicode hex="00F2"/>
  <outline>
    <contour>
      <point x="463" y="579" type="line"/>
      <point x="371" y="530" type="line"/>
      <point x="242" y="682" type="line"/>
      <point x="352" y="737" type="line"/>
    </contour>
    <contour>
      <point x="199" y="0" type="curve" smooth="yes"/>
      <point x="99" y="0"/>
      <point x="36" y="76"/>
      <point x="36" y="177" type="curve" smooth="yes"/>
      <point x="36" y="344"/>
      <point x="193" y="500"/>
      <point x="333" y="500" type="curve" smooth="yes"/>
      <point x="432" y="500"/>
      <point x="496" y="422"/>
      <point x="496" y="322" type="curve" smooth="yes"/>
      <point x="496" y="154"/>
      <point x="339" y="0"/>
    </contour>
    <contour>
      <point x="310" y="411" type="curve" smooth="yes"/>
      <point x="228" y="411"/>
      <point x="135" y="302"/>
      <point x="135" y="193" type="curve" smooth="yes"/>
      <point x="135" y="134"/>
      <point x="164" y="89"/>
      <point x="217" y="89" type="curve" smooth="yes"/>
      <point x="296" y="89"/>
      <point x="396" y="193"/>
      <point x="396" y="301" type="curve" smooth="yes"/>
      <point x="396" y="363"/>
      <point x="363" y="411"/>
    </contour>
  </outline>
</glyph>
<glyph name="oslash" format="1">
  <advance width="561"/>
  <unicode hex="00F8"/>
  <outline>
    <contour>
      <point x="514" y="503" type="line"/>
      <point x="462" y="437" type="line"/>
      <point x="485" y="407"/>
      <point x="496" y="366"/>
      <point x="496" y="323" type="curve" smooth="yes"/>
      <point x="496" y="154"/>
      <point x="340" y="0"/>
      <point x="199" y="0" type="curve" smooth="yes"/>
      <point x="173" y="0"/>
      <point x="148" y="5"/>
      <point x="126" y="15" type="curve"/>
      <point x="82" y="-40" type="line"/>
      <point x="11" y="6" type="line"/>
      <point x="63" y="70" type="line"/>
      <point x="44" y="98"/>
      <point x="35" y="132"/>
      <point x="35" y="170" type="curve" smooth="yes"/>
      <point x="35" y="339"/>
      <point x="188" y="500"/>
      <point x="333" y="500" type="curve" smooth="yes"/>
      <point x="355" y="500"/>
      <point x="376" y="497"/>
      <point x="396" y="488" type="curve"/>
      <point x="444" y="549" type="line"/>
    </contour>
    <contour>
      <point x="136" y="163" type="curve"/>
      <point x="332" y="408" type="line"/>
      <point x="325" y="410"/>
      <point x="316" y="411"/>
      <point x="310" y="411" type="curve" smooth="yes"/>
      <point x="226" y="411"/>
      <point x="135" y="300"/>
      <point x="135" y="188" type="curve" smooth="yes"/>
      <point x="135" y="180"/>
      <point x="135" y="171"/>
    </contour>
    <contour>
      <point x="217" y="89" type="curve" smooth="yes"/>
      <point x="311" y="89"/>
      <point x="395" y="210"/>
      <point x="395" y="302" type="curve" smooth="yes"/>
      <point x="395" y="317"/>
      <point x="393" y="332"/>
      <point x="390" y="346" type="curve"/>
      <point x="188" y="94" type="line"/>
      <point x="198" y="90"/>
      <point x="206" y="89"/>
    </contour>
  </outline>
</glyph>
<glyph name="ugrave" format="1">
  <advance width="542"/>
  <unicode hex="00F9"/>
  <outline>
    <contour>
      <point x="448" y="579" type="line"/>
      <point x="337" y="737" type="line"/>
      <point x="227" y="682" type="line"/>
      <point x="356" y="530" type="line"/>
    </contour>
    <contour>
      <point x="162" y="286" type="curve" smooth="yes"/>
      <point x="178" y="359"/>
      <point x="223" y="488"/>
      <point x="231" y="509" type="curve"/>
      <point x="128" y="492" type="line"/>
      <point x="100" y="418"/>
      <point x="76" y="328"/>
      <point x="67" y="286" type="curve" smooth="yes"/>
      <point x="55" y="229"/>
      <point x="43" y="170"/>
      <point x="43" y="121" type="curve" smooth="yes"/>
      <point x="43" y="48"/>
      <point x="70" y="-5"/>
      <point x="166" y="-5" type="curve" smooth="yes"/>
      <point x="216" y="-5"/>
      <point x="269" y="14"/>
      <point x="308" y="36" type="curve"/>
      <point x="300" y="-4" type="line"/>
      <point x="405" y="12" type="line"/>
      <point x="510" y="508" type="line"/>
      <point x="408" y="491" type="line"/>
      <point x="339" y="167" type="line" smooth="yes"/>
      <point x="336" y="155"/>
      <point x="333" y="147"/>
      <point x="328" y="143" type="curve" smooth="yes"/>
      <point x="306" y="125"/>
      <point x="244" y="85"/>
      <point x="189" y="85" type="curve" smooth="yes"/>
      <point x="153" y="85"/>
      <point x="142" y="112"/>
      <point x="142" y="152" type="curve" smooth="yes"/>
      <point x="142" y="189"/>
      <point x="152" y="238"/>
    </contour>
  </outline>
</glyph>
<glyph name="ydieresis" format="1">
  <advance width="526"/>
  <unicode hex="00FF"/>
  <outline>
    <contour>
      <point x="324" y="672" type="line"/>
      <point x="208" y="658" type="line"/>
      <point x="172" y="546" type="line"/>
      <point x="289" y="561" type="line"/>
    </contour>
    <contour>
      <point x="490" y="672" type="line"/>
      <point x="374" y="658" type="line"/>
      <point x="337" y="546" type="line"/>
      <point x="455" y="561" type="line"/>
    </contour>
    <contour>
      <point x="456" y="508" type="line"/>
      <point x="241" y="191" type="line"/>
      <point x="150" y="507" type="line"/>
      <point x="55" y="464" type="line"/>
      <point x="166" y="78" type="line"/>
      <point x="14" y="-146" type="line"/>
      <point x="93" y="-187" type="line"/>
      <point x="536" y="467" type="line"/>
    </contour>
  </outline>
</glyph>
<glyph name="abreve" format="1">
  <advance width="530"/>
  <unicode hex="0103"/>
  <outline>
    <contour>
      <point x="356" y="626" type="curve" smooth="yes"/>
      <point x="329" y="626"/>
      <point x="294" y="629"/>
      <point x="271" y="698" type="curve"/>
      <point x="198" y="637" type="line"/>
      <point x="213" y="572"/>
      <point x="269" y="538"/>
      <point x="342" y="538" type="curve" smooth="yes"/>
      <point x="409" y="538"/>
      <point x="483" y="575"/>
      <point x="520" y="642" type="curve"/>
      <point x="470" y="706" type="line"/>
      <point x="436" y="649"/>
      <point x="402" y="626"/>
    </contour>
    <contour>
      <point x="490" y="466" type="line"/>
      <point x="444" y="492"/>
      <point x="392" y="512"/>
      <point x="338" y="512" type="curve" smooth="yes"/>
      <point x="168" y="512"/>
      <point x="33" y="312"/>
      <point x="33" y="166" type="curve" smooth="yes"/>
      <point x="33" y="69"/>
      <point x="93" y="6"/>
      <point x="186" y="6" type="curve" smooth="yes"/>
      <point x="227" y="6"/>
      <point x="266" y="18"/>
      <point x="302" y="34" type="curve"/>
      <point x="293" y="-5" type="line"/>
      <point x="393" y="13" type="line"/>
    </contour>
    <contour>
      <point x="323" y="417" type="curve" smooth="yes"/>
      <point x="342" y="417"/>
      <point x="367" y="412"/>
      <point x="382" y="404" type="curve"/>
      <point x="323" y="143" type="line"/>
      <point x="295" y="126"/>
      <point x="245" y="102"/>
      <point x="205" y="102" type="curve" smooth="yes"/>
      <point x="151" y="102"/>
      <point x="133" y="145"/>
      <point x="133" y="189" type="curve" smooth="yes"/>
      <point x="133" y="292"/>
      <point x="218" y="417"/>
    </contour>
  </outline>
</glyph>
<glyph name="Aogonek" format="1">
  <advance width="663"/>
  <unicode hex="0104"/>
  <outline>
    <contour>
      <point x="539" y="45" type="line"/>
      <point x="403" y="-34" type="line" smooth="yes"/>
      <point x="384" y="-45"/>
      <point x="350" y="-66"/>
      <point x="350" y="-91" type="curve" smooth="yes"/>
      <point x="350" y="-103"/>
      <point x="361" y="-112"/>
      <point x="374" y="-112" type="curve" smooth="yes"/>
      <point x="395" y="-112"/>
      <point x="420" y="-98"/>
      <point x="453" y="-75" type="curve"/>
      <point x="492" y="-131" type="line"/>
      <point x="459" y="-164"/>
      <point x="401" y="-196"/>
      <point x="356" y="-196" type="curve" smooth="yes"/>
      <point x="297" y="-196"/>
      <point x="256" y="-170"/>
      <point x="256" y="-119" type="curve" smooth="yes"/>
      <point x="256" y="-37"/>
      <point x="327" y="1"/>
      <point x="385" y="30" type="curve" smooth="yes"/>
      <point x="434" y="55" type="line"/>
      <point x="413" y="240" type="line"/>
      <point x="190" y="195" type="line"/>
      <point x="72" y="-8" type="line"/>
      <point x="-6" y="36" type="line"/>
      <point x="74" y="171" type="line"/>
      <point x="50" y="168" type="line"/>
      <point x="54" y="264" type="line"/>
      <point x="137" y="279" type="line"/>
      <point x="363" y="666" type="line"/>
      <point x="465" y="684" type="line"/>
    </contour>
    <contour>
      <point x="253" y="303" type="line"/>
      <point x="402" y="334" type="line"/>
      <point x="380" y="518" type="line"/>
    </contour>
  </outline>
</glyph>
<glyph name="aogonek" format="1">
  <advance width="536"/>
  <unicode hex="0105"/>
  <outline>
    <contour>
      <point x="297" y="18" type="line"/>
      <point x="237" y="-12"/>
      <point x="163" y="-45"/>
      <point x="163" y="-123" type="curve" smooth="yes"/>
      <point x="163" y="-170"/>
      <point x="203" y="-196"/>
      <point x="255" y="-196" type="curve" smooth="yes"/>
      <point x="310" y="-196"/>
      <point x="368" y="-164"/>
      <point x="401" y="-131" type="curve"/>
      <point x="368" y="-85" type="line"/>
      <point x="336" y="-108"/>
      <point x="312" y="-122"/>
      <point x="281" y="-122" type="curve" smooth="yes"/>
      <point x="268" y="-122"/>
      <point x="257" y="-113"/>
      <point x="257" y="-101" type="curve" smooth="yes"/>
      <point x="257" y="-73"/>
      <point x="291" y="-54"/>
      <point x="310" y="-44" type="curve" smooth="yes"/>
      <point x="390" y="0" type="line"/>
      <point x="489" y="466" type="line"/>
      <point x="443" y="492"/>
      <point x="391" y="512"/>
      <point x="337" y="512" type="curve" smooth="yes"/>
      <point x="168" y="512"/>
      <point x="32" y="313"/>
      <point x="32" y="167" type="curve" smooth="yes"/>
      <point x="32" y="70"/>
      <point x="92" y="11"/>
      <point x="186" y="11" type="curve" smooth="yes"/>
      <point x="227" y="11"/>
      <point x="266" y="23"/>
      <point x="302" y="39" type="curve"/>
    </contour>
    <contour>
      <point x="136" y="227" type="curve" smooth="yes"/>
      <point x="150" y="296"/>
      <point x="214" y="417"/>
      <point x="322" y="417" type="curve" smooth="yes"/>
      <point x="341" y="417"/>
      <point x="366" y="412"/>
      <point x="381" y="404" type="curve"/>
      <point x="322" y="143" type="line"/>
      <point x="294" y="126"/>
      <point x="244" y="102"/>
      <point x="204" y="102" type="curve" smooth="yes"/>
      <point x="150" y="102"/>
      <point x="132" y="145"/>
      <point x="132" y="189" type="curve" smooth="yes"/>
      <point x="132" y="202"/>
      <point x="133" y="215"/>
    </contour>
  </outline>
</glyph>
<glyph name="Dcaron" format="1">
  <advance width="642"/>
  <unicode hex="010E"/>
  <outline>
    <contour>
      <point x="521" y="897" type="line"/>
      <point x="393" y="812" type="line"/>
      <point x="320" y="897" type="line"/>
      <point x="241" y="830" type="line"/>
      <point x="365" y="701" type="line"/>
      <point x="565" y="824" type="line"/>
    </contour>
    <contour>
      <point x="7" y="7" type="line"/>
      <point x="55" y="-7"/>
      <point x="122" y="-14"/>
      <point x="158" y="-14" type="curve" smooth="yes"/>
      <point x="404" y="-14"/>
      <point x="583" y="144"/>
      <point x="583" y="375" type="curve" smooth="yes"/>
      <point x="583" y="549"/>
      <point x="469" y="680"/>
      <point x="197" y="680" type="curve" smooth="yes"/>
      <point x="150" y="680" type="line"/>
    </contour>
    <contour>
      <point x="357" y="123" type="curve" smooth="yes"/>
      <point x="298" y="89"/>
      <point x="227" y="83"/>
      <point x="178" y="83" type="curve" smooth="yes"/>
      <point x="158" y="83"/>
      <point x="136" y="84"/>
      <point x="121" y="86" type="curve"/>
      <point x="226" y="583" type="line"/>
      <point x="360" y="583"/>
      <point x="484" y="509"/>
      <point x="484" y="368" type="curve" smooth="yes"/>
      <point x="484" y="255"/>
      <point x="430" y="164"/>
    </contour>
  </outline>
</glyph>
<glyph name="dcroat" format="1">
  <advance width="576"/>
  <unicode hex="0111"/>
  <outline>
    <contour>
      <point x="455" y="667" type="line"/>
      <point x="440" y="606" type="line"/>
      <point x="365" y="606" type="line"/>
      <point x="331" y="523" type="line"/>
      <point x="422" y="523" type="line"/>
      <point x="409" y="469" type="line"/>
      <point x="380" y="478"/>
      <point x="348" y="486"/>
      <point x="318" y="486" type="curve" smooth="yes"/>
      <point x="161" y="486"/>
      <point x="33" y="340"/>
      <point x="33" y="160" type="curve" smooth="yes"/>
      <point x="33" y="75"/>
      <point x="74" y="5"/>
      <point x="172" y="5" type="curve" smooth="yes"/>
      <point x="229" y="5"/>
      <point x="271" y="23"/>
      <point x="310" y="47" type="curve"/>
      <point x="299" y="-5" type="line"/>
      <point x="394" y="12" type="line"/>
      <point x="514" y="523" type="line"/>
      <point x="601" y="523" type="line"/>
      <point x="636" y="606" type="line"/>
      <point x="533" y="606" type="line"/>
      <point x="552" y="684" type="line"/>
    </contour>
    <contour>
      <point x="340" y="171" type="line" smooth="yes"/>
      <point x="335" y="149"/>
      <point x="269" y="95"/>
      <point x="191" y="95" type="curve" smooth="yes"/>
      <point x="144" y="95"/>
      <point x="130" y="133"/>
      <point x="130" y="173" type="curve" smooth="yes"/>
      <point x="130" y="225"/>
      <point x="159" y="392"/>
      <point x="293" y="392" type="curve" smooth="yes"/>
      <point x="335" y="392"/>
      <point x="368" y="376"/>
      <point x="386" y="366" type="curve"/>
    </contour>
  </outline>
</glyph>
<glyph name="Eogonek" format="1">
  <advance width="637"/>
  <unicode hex="0118"/>
  <outline>
    <contour>
      <point x="480" y="0" type="line"/>
      <point x="536" y="99" type="line"/>
      <point x="126" y="99" type="line"/>
      <point x="169" y="304" type="line"/>
      <point x="506" y="304" type="line"/>
      <point x="556" y="402" type="line"/>
      <point x="190" y="402" type="line"/>
      <point x="228" y="582" type="line"/>
      <point x="611" y="582" type="line"/>
      <point x="649" y="681" type="line"/>
      <point x="150" y="681" type="line"/>
      <point x="6" y="0" type="line"/>
      <point x="344" y="0" type="line"/>
      <point x="303" y="-26"/>
      <point x="262" y="-60"/>
      <point x="262" y="-119" type="curve" smooth="yes"/>
      <point x="262" y="-170"/>
      <point x="303" y="-196"/>
      <point x="362" y="-196" type="curve" smooth="yes"/>
      <point x="407" y="-196"/>
      <point x="467" y="-164"/>
      <point x="500" y="-131" type="curve"/>
      <point x="459" y="-75" type="line"/>
      <point x="426" y="-98"/>
      <point x="401" y="-112"/>
      <point x="380" y="-112" type="curve" smooth="yes"/>
      <point x="367" y="-112"/>
      <point x="356" y="-103"/>
      <point x="356" y="-91" type="curve" smooth="yes"/>
      <point x="357" y="-63"/>
      <point x="390" y="-43"/>
      <point x="409" y="-34" type="curve" smooth="yes"/>
    </contour>
  </outline>
</glyph>
<glyph name="eogonek" format="1">
  <advance width="553"/>
  <unicode hex="0119"/>
  <outline>
    <contour>
      <point x="239" y="-33" type="curve"/>
      <point x="370" y="34"/>
      <point x="406" y="61"/>
      <point x="444" y="93" type="curve"/>
      <point x="391" y="156" type="line"/>
      <point x="343" y="115"/>
      <point x="296" y="92"/>
      <point x="255" y="92" type="curve" smooth="yes"/>
      <point x="206" y="92"/>
      <point x="165" y="122"/>
      <point x="146" y="158" type="curve"/>
      <point x="502" y="335" type="line"/>
      <point x="495" y="426"/>
      <point x="433" y="502"/>
      <point x="342" y="502" type="curve" smooth="yes"/>
      <point x="189" y="502"/>
      <point x="40" y="356"/>
      <point x="40" y="196" type="curve" smooth="yes"/>
      <point x="40" y="103"/>
      <point x="94" y="30"/>
      <point x="178" y="7" type="curve"/>
      <point x="134" y="-18"/>
      <point x="92" y="-56"/>
      <point x="92" y="-119" type="curve" smooth="yes"/>
      <point x="92" y="-170"/>
      <point x="133" y="-196"/>
      <point x="192" y="-196" type="curve" smooth="yes"/>
      <point x="237" y="-196"/>
      <point x="295" y="-164"/>
      <point x="328" y="-131" type="curve"/>
      <point x="289" y="-75" type="line"/>
      <point x="256" y="-98"/>
      <point x="231" y="-112"/>
      <point x="210" y="-112" type="curve" smooth="yes"/>
      <point x="197" y="-112"/>
      <point x="186" y="-103"/>
      <point x="186" y="-91" type="curve" smooth="yes"/>
      <point x="186" y="-63"/>
      <point x="220" y="-44"/>
    </contour>
    <contour>
      <point x="137" y="247" type="line"/>
      <point x="155" y="334"/>
      <point x="233" y="410"/>
      <point x="323" y="410" type="curve" smooth="yes"/>
      <point x="349" y="410"/>
      <point x="375" y="396"/>
      <point x="389" y="375" type="curve"/>
    </contour>
  </outline>
</glyph>
<glyph name="Ecaron" format="1">
  <advance width="637"/>
  <unicode hex="011A"/>
  <outline>
    <contour>
      <point x="549" y="897" type="line"/>
      <point x="593" y="824" type="line"/>
      <point x="393" y="701" type="line"/>
      <point x="268" y="830" type="line"/>
      <point x="347" y="897" type="line"/>
      <point x="420" y="812" type="line"/>
    </contour>
    <contour>
      <point x="126" y="99" type="line"/>
      <point x="536" y="99" type="line"/>
      <point x="480" y="0" type="line"/>
      <point x="6" y="0" type="line"/>
      <point x="150" y="681" type="line"/>
      <point x="649" y="681" type="line"/>
      <point x="611" y="582" type="line"/>
      <point x="228" y="582" type="line"/>
      <point x="190" y="402" type="line"/>
      <point x="556" y="402" type="line"/>
      <point x="506" y="304" type="line"/>
      <point x="169" y="304" type="line"/>
    </contour>
  </outline>
</glyph>
<glyph name="ecaron" format="1">
  <advance width="553"/>
  <unicode hex="011B"/>
  <outline>
    <contour>
      <point x="485" y="722" type="line"/>
      <point x="359" y="639" type="line"/>
      <point x="288" y="722" type="line"/>
      <point x="210" y="657" type="line"/>
      <point x="332" y="532" type="line"/>
      <point x="527" y="652" type="line"/>
    </contour>
    <contour>
      <point x="236" y="0" type="curve" smooth="yes"/>
      <point x="300" y="0"/>
      <point x="375" y="33"/>
      <point x="444" y="93" type="curve"/>
      <point x="391" y="156" type="line"/>
      <point x="343" y="115"/>
      <point x="296" y="92"/>
      <point x="255" y="92" type="curve" smooth="yes"/>
      <point x="206" y="92"/>
      <point x="165" y="122"/>
      <point x="146" y="158" type="curve"/>
      <point x="502" y="335" type="line"/>
      <point x="495" y="426"/>
      <point x="433" y="502"/>
      <point x="342" y="502" type="curve" smooth="yes"/>
      <point x="189" y="502"/>
      <point x="40" y="357"/>
      <point x="40" y="197" type="curve" smooth="yes"/>
      <point x="40" y="85"/>
      <point x="119" y="0"/>
    </contour>
    <contour>
      <point x="137" y="247" type="line"/>
      <point x="155" y="334"/>
      <point x="233" y="410"/>
      <point x="323" y="410" type="curve" smooth="yes"/>
      <point x="349" y="410"/>
      <point x="375" y="396"/>
      <point x="389" y="375" type="curve"/>
    </contour>
  </outline>
</glyph>
<glyph name="hcircumflex" format="1">
  <advance width="530"/>
  <unicode hex="0125"/>
  <outline>
    <contour>
      <point x="145" y="201" type="curve" smooth="yes"/>
      <point x="105" y="12" type="line"/>
      <point x="4" y="-5" type="line"/>
      <point x="146" y="661" type="line"/>
      <point x="247" y="679" type="line"/>
      <point x="189" y="409" type="line"/>
      <point x="241" y="463"/>
      <point x="306" y="505"/>
      <point x="367" y="505" type="curve" smooth="yes"/>
      <point x="437" y="505"/>
      <point x="466" y="460"/>
      <point x="466" y="370" type="curve" smooth="yes"/>
      <point x="466" y="290"/>
      <point x="419" y="72"/>
      <point x="404" y="12" type="curve"/>
      <point x="304" y="-5" type="line"/>
      <point x="320" y="48"/>
      <point x="369" y="275"/>
      <point x="369" y="340" type="curve" smooth="yes"/>
      <point x="369" y="384"/>
      <point x="358" y="407"/>
      <point x="334" y="407" type="curve" smooth="yes"/>
      <point x="279" y="407"/>
      <point x="190" y="300"/>
      <point x="171" y="272" type="curve" smooth="yes"/>
      <point x="158" y="253"/>
      <point x="151" y="227"/>
    </contour>
    <contour>
      <point x="234" y="690" type="line"/>
      <point x="188" y="756" type="line"/>
      <point x="392" y="895" type="line"/>
      <point x="513" y="751" type="line"/>
      <point x="434" y="691" type="line"/>
      <point x="360" y="773" type="line"/>
    </contour>
  </outline>
</glyph>
<glyph name="Lacute" format="1">
  <advance width="513"/>
  <unicode hex="0139"/>
  <outline>
    <contour>
      <point x="200" y="772" type="line"/>
      <point x="259" y="710" type="line"/>
      <point x="475" y="831" type="line"/>
      <point x="405" y="906" type="line"/>
    </contour>
    <contour>
      <point x="3" y="-2" type="line"/>
      <point x="431" y="29" type="line"/>
      <point x="447" y="128" type="line"/>
      <point x="125" y="104" type="line"/>
      <point x="248" y="683" type="line"/>
      <point x="145" y="665" type="line"/>
    </contour>
  </outline>
</glyph>
<glyph name="lacute" format="1">
  <advance width="252"/>
  <unicode hex="013A"/>
  <outline>
    <contour>
      <point x="125" y="754" type="line"/>
      <point x="183" y="694" type="line"/>
      <point x="394" y="812" type="line"/>
      <point x="326" y="885" type="line"/>
    </contour>
    <contour>
      <point x="159" y="661" type="line"/>
      <point x="17" y="-5" type="line"/>
      <point x="117" y="12" type="line"/>
      <point x="259" y="679" type="line"/>
    </contour>
  </outline>
</glyph>
<glyph name="Lcaron" format="1">
  <advance width="558"/>
  <unicode hex="013D"/>
  <outline>
    <contour>
      <point x="46" y="-2" type="line"/>
      <point x="474" y="29" type="line"/>
      <point x="489" y="128" type="line"/>
      <point x="168" y="104" type="line"/>
      <point x="291" y="683" type="line"/>
      <point x="188" y="665" type="line"/>
    </contour>
    <contour>
      <point x="452" y="897" type="line"/>
      <point x="324" y="812" type="line"/>
      <point x="251" y="897" type="line"/>
      <point x="171" y="825" type="line"/>
      <point x="296" y="701" type="line"/>
      <point x="496" y="824" type="line"/>
    </contour>
  </outline>
</glyph>
<glyph name="lslash" format="1">
  <advance width="292"/>
  <unicode hex="0142"/>
  <outline>
    <contour>
      <point x="296" y="365" type="line"/>
      <point x="262" y="447" type="line"/>
      <point x="223" y="425" type="line"/>
      <point x="277" y="679" type="line"/>
      <point x="177" y="661" type="line"/>
      <point x="114" y="365" type="line"/>
      <point x="14" y="310" type="line"/>
      <point x="53" y="228" type="line"/>
      <point x="89" y="248" type="line"/>
      <point x="35" y="-5" type="line"/>
      <point x="135" y="12" type="line"/>
      <point x="198" y="310" type="line"/>
    </contour>
  </outline>
</glyph>
<glyph name="ncaron" format="1">
  <advance width="562"/>
  <unicode hex="0148"/>
  <outline>
    <contour>
      <point x="494" y="722" type="line"/>
      <point x="368" y="639" type="line"/>
      <point x="297" y="722" type="line"/>
      <point x="219" y="657" type="line"/>
      <point x="341" y="532" type="line"/>
      <point x="536" y="652" type="line"/>
    </contour>
    <contour>
      <point x="324" y="-5" type="line"/>
      <point x="424" y="15" type="line"/>
      <point x="446" y="127" type="line" smooth="yes"/>
      <point x="470" y="249"/>
      <point x="488" y="326"/>
      <point x="487" y="386" type="curve" smooth="yes"/>
      <point x="485" y="463"/>
      <point x="445" y="501"/>
      <point x="373" y="501" type="curve" smooth="yes"/>
      <point x="307" y="501"/>
      <point x="240" y="464"/>
      <point x="189" y="408" type="curve"/>
      <point x="210" y="507" type="line"/>
      <point x="110" y="489" type="line"/>
      <point x="5" y="-5" type="line"/>
      <point x="104" y="13" type="line"/>
      <point x="131" y="135" type="line" smooth="yes"/>
      <point x="144" y="193"/>
      <point x="179" y="266"/>
      <point x="217" y="319" type="curve"/>
      <point x="275" y="394"/>
      <point x="319" y="406"/>
      <point x="351" y="406" type="curve" smooth="yes"/>
      <point x="379" y="406"/>
      <point x="389" y="380"/>
      <point x="389" y="343" type="curve" smooth="yes"/>
      <point x="389" y="300"/>
      <point x="377" y="239"/>
      <point x="359" y="157" type="curve" smooth="yes"/>
    </contour>
  </outline>
</glyph>
<glyph name="ohungarumlaut" format="1">
  <advance width="581"/>
  <unicode hex="0151"/>
  <outline>
    <contour>
      <point x="200" y="0" type="curve" smooth="yes"/>
      <point x="339" y="0"/>
      <point x="497" y="154"/>
      <point x="497" y="322" type="curve" smooth="yes"/>
      <point x="497" y="422"/>
      <point x="433" y="500"/>
      <point x="334" y="500" type="curve" smooth="yes"/>
      <point x="194" y="500"/>
      <point x="37" y="344"/>
      <point x="37" y="177" type="curve" smooth="yes"/>
      <point x="37" y="76"/>
      <point x="100" y="0"/>
    </contour>
    <contour>
      <point x="311" y="411" type="curve" smooth="yes"/>
      <point x="363" y="411"/>
      <point x="396" y="363"/>
      <point x="396" y="301" type="curve" smooth="yes"/>
      <point x="396" y="193"/>
      <point x="297" y="89"/>
      <point x="218" y="89" type="curve" smooth="yes"/>
      <point x="165" y="89"/>
      <point x="136" y="134"/>
      <point x="136" y="193" type="curve" smooth="yes"/>
      <point x="136" y="302"/>
      <point x="229" y="411"/>
    </contour>
    <contour>
      <point x="155" y="597" type="line"/>
      <point x="215" y="535" type="line"/>
      <point x="421" y="656" type="line"/>
      <point x="361" y="731" type="line"/>
    </contour>
    <contour>
      <point x="374" y="597" type="line"/>
      <point x="424" y="535" type="line"/>
      <point x="641" y="656" type="line"/>
      <point x="580" y="731" type="line"/>
    </contour>
  </outline>
</glyph>
<glyph name="OE" format="1">
  <advance width="1119"/>
  <unicode hex="0152"/>
  <outline>
    <contour>
      <point x="583" y="99" type="line"/>
      <point x="626" y="304" type="line"/>
      <point x="963" y="304" type="line"/>
      <point x="1013" y="402" type="line"/>
      <point x="647" y="402" type="line"/>
      <point x="685" y="582" type="line"/>
      <point x="1068" y="582" type="line"/>
      <point x="1106" y="681" type="line"/>
      <point x="607" y="681" type="line"/>
      <point x="594" y="619" type="line"/>
      <point x="558" y="663"/>
      <point x="507" y="684"/>
      <point x="449" y="684" type="curve" smooth="yes"/>
      <point x="272" y="684"/>
      <point x="67" y="467"/>
      <point x="67" y="235" type="curve" smooth="yes"/>
      <point x="67" y="102"/>
      <point x="141" y="0"/>
      <point x="265" y="0" type="curve" smooth="yes"/>
      <point x="339" y="0"/>
      <point x="419" y="38"/>
      <point x="484" y="99" type="curve"/>
      <point x="463" y="0" type="line"/>
      <point x="937" y="0" type="line"/>
      <point x="993" y="99" type="line"/>
    </contour>
    <contour>
      <point x="285" y="95" type="curve" smooth="yes"/>
      <point x="209" y="95"/>
      <point x="165" y="162"/>
      <point x="165" y="252" type="curve" smooth="yes"/>
      <point x="165" y="431"/>
      <point x="310" y="589"/>
      <point x="422" y="589" type="curve" smooth="yes"/>
      <point x="501" y="589"/>
      <point x="546" y="513"/>
      <point x="546" y="423" type="curve" smooth="yes"/>
      <point x="546" y="291"/>
      <point x="426" y="95"/>
    </contour>
  </outline>
</glyph>
<glyph name="oe" format="1">
  <advance width="937"/>
  <unicode hex="0153"/>
  <outline>
    <contour>
      <point x="612" y="92" type="curve" smooth="yes"/>
      <point x="564" y="92"/>
      <point x="522" y="122"/>
      <point x="503" y="158" type="curve"/>
      <point x="611" y="212"/>
      <point x="849" y="338"/>
      <point x="849" y="338" type="curve"/>
      <point x="842" y="427"/>
      <point x="778" y="502"/>
      <point x="699" y="502" type="curve" smooth="yes"/>
      <point x="620" y="502"/>
      <point x="544" y="465"/>
      <point x="488" y="406" type="curve"/>
      <point x="463" y="467"/>
      <point x="409" y="500"/>
      <point x="342" y="500" type="curve" smooth="yes"/>
      <point x="202" y="500"/>
      <point x="44" y="344"/>
      <point x="44" y="177" type="curve" smooth="yes"/>
      <point x="44" y="76"/>
      <point x="107" y="0"/>
      <point x="208" y="0" type="curve" smooth="yes"/>
      <point x="283" y="0"/>
      <point x="360" y="43"/>
      <point x="416" y="107" type="curve"/>
      <point x="448" y="43"/>
      <point x="511" y="0"/>
      <point x="593" y="0" type="curve" smooth="yes"/>
      <point x="658" y="0"/>
      <point x="733" y="33"/>
      <point x="801" y="93" type="curve"/>
      <point x="749" y="156" type="line"/>
      <point x="701" y="115"/>
      <point x="653" y="92"/>
    </contour>
    <contour>
      <point x="226" y="89" type="curve" smooth="yes"/>
      <point x="172" y="89"/>
      <point x="143" y="134"/>
      <point x="143" y="192" type="curve" smooth="yes"/>
      <point x="143" y="302"/>
      <point x="237" y="411"/>
      <point x="318" y="411" type="curve" smooth="yes"/>
      <point x="371" y="411"/>
      <point x="404" y="363"/>
      <point x="404" y="301" type="curve" smooth="yes"/>
      <point x="404" y="212"/>
      <point x="319" y="89"/>
    </contour>
    <contour>
      <point x="494" y="247" type="line"/>
      <point x="512" y="334"/>
      <point x="590" y="410"/>
      <point x="680" y="410" type="curve" smooth="yes"/>
      <point x="706" y="410"/>
      <point x="732" y="396"/>
      <point x="746" y="375" type="curve"/>
    </contour>
  </outline>
</glyph>
<glyph name="sacute" format="1">
  <advance width="486"/>
  <unicode hex="015B"/>
  <outline>
    <contour>
      <point x="202" y="600" type="line"/>
      <point x="260" y="540" type="line"/>
      <point x="471" y="658" type="line"/>
      <point x="402" y="731" type="line"/>
    </contour>
    <contour>
      <point x="221" y="219" type="curve" smooth="yes"/>
      <point x="264" y="206"/>
      <point x="299" y="189"/>
      <point x="299" y="156" type="curve" smooth="yes"/>
      <point x="299" y="122"/>
      <point x="259" y="91"/>
      <point x="200" y="91" type="curve" smooth="yes"/>
      <point x="158" y="91"/>
      <point x="119" y="116"/>
      <point x="114" y="167" type="curve"/>
      <point x="17" y="151" type="line"/>
      <point x="23" y="55"/>
      <point x="96" y="0"/>
      <point x="181" y="0" type="curve" smooth="yes"/>
      <point x="238" y="0"/>
      <point x="398" y="38"/>
      <point x="398" y="184" type="curve" smooth="yes"/>
      <point x="398" y="242"/>
      <point x="354" y="283"/>
      <point x="263" y="310" type="curve" smooth="yes"/>
      <point x="215" y="324"/>
      <point x="190" y="338"/>
      <point x="190" y="360" type="curve" smooth="yes"/>
      <point x="190" y="386"/>
      <point x="217" y="417"/>
      <point x="287" y="417" type="curve" smooth="yes"/>
      <point x="316" y="417"/>
      <point x="351" y="407"/>
      <point x="351" y="380" type="curve" smooth="yes"/>
      <point x="351" y="375"/>
      <point x="350" y="357"/>
      <point x="333" y="329" type="curve"/>
      <point x="430" y="347" type="line"/>
      <point x="443" y="374"/>
      <point x="445" y="394"/>
      <point x="445" y="410" type="curve" smooth="yes"/>
      <point x="445" y="488"/>
      <point x="366" y="505"/>
      <point x="287" y="505" type="curve" smooth="yes"/>
      <point x="233" y="505"/>
      <point x="90" y="473"/>
      <point x="90" y="338" type="curve" smooth="yes"/>
      <point x="90" y="268"/>
      <point x="157" y="237"/>
    </contour>
  </outline>
</glyph>
<glyph name="Scedilla" format="1">
  <advance width="625"/>
  <unicode hex="015E"/>
  <outline>
    <contour>
      <point x="313" y="308" type="curve"/>
      <point x="414" y="279"/>
      <point x="431" y="245"/>
      <point x="431" y="217" type="curve" smooth="yes"/>
      <point x="431" y="144"/>
      <point x="350" y="95"/>
      <point x="271" y="95" type="curve" smooth="yes"/>
      <point x="213" y="95"/>
      <point x="150" y="128"/>
      <point x="139" y="200" type="curve"/>
      <point x="32" y="184" type="line"/>
      <point x="43" y="90"/>
      <point x="106" y="22"/>
      <point x="199" y="4" type="curve"/>
      <point x="167" y="-54" type="line"/>
      <point x="200" y="-98" type="line"/>
      <point x="206" y="-93"/>
      <point x="217" y="-90"/>
      <point x="224" y="-90" type="curve" smooth="yes"/>
      <point x="242" y="-90"/>
      <point x="251" y="-97"/>
      <point x="251" y="-110" type="curve" smooth="yes"/>
      <point x="251" y="-128"/>
      <point x="235" y="-139"/>
      <point x="218" y="-139" type="curve" smooth="yes"/>
      <point x="204" y="-139"/>
      <point x="193" y="-132"/>
      <point x="189" y="-123" type="curve"/>
      <point x="138" y="-157" type="line"/>
      <point x="155" y="-186"/>
      <point x="175" y="-196"/>
      <point x="206" y="-196" type="curve" smooth="yes"/>
      <point x="264" y="-196"/>
      <point x="320" y="-159"/>
      <point x="320" y="-94" type="curve" smooth="yes"/>
      <point x="320" y="-54"/>
      <point x="289" y="-37"/>
      <point x="244" y="-33" type="curve"/>
      <point x="252" y="-1" type="line"/>
      <point x="361" y="0"/>
      <point x="539" y="75"/>
      <point x="539" y="237" type="curve" smooth="yes"/>
      <point x="539" y="315"/>
      <point x="479" y="370"/>
      <point x="358" y="406" type="curve" smooth="yes"/>
      <point x="284" y="428"/>
      <point x="245" y="453"/>
      <point x="245" y="490" type="curve" smooth="yes"/>
      <point x="245" y="568"/>
      <point x="344" y="588"/>
      <point x="399" y="588" type="curve" smooth="yes"/>
      <point x="440" y="588"/>
      <point x="505" y="574"/>
      <point x="505" y="525" type="curve" smooth="yes"/>
      <point x="505" y="523"/>
      <point x="506" y="499"/>
      <point x="486" y="470" type="curve"/>
      <point x="589" y="488" type="line"/>
      <point x="608" y="537"/>
      <point x="605" y="538"/>
      <point x="605" y="558" type="curve" smooth="yes"/>
      <point x="605" y="652"/>
      <point x="504" y="681"/>
      <point x="419" y="681" type="curve" smooth="yes"/>
      <point x="286" y="681"/>
      <point x="136" y="613"/>
      <point x="136" y="468" type="curve" smooth="yes"/>
      <point x="136" y="380"/>
      <point x="228" y="331"/>
    </contour>
  </outline>
</glyph>
<glyph name="scedilla" format="1">
  <advance width="486"/>
  <unicode hex="015F"/>
  <outline>
    <contour>
      <point x="221" y="219" type="curve" smooth="yes"/>
      <point x="264" y="206"/>
      <point x="299" y="189"/>
      <point x="299" y="156" type="curve" smooth="yes"/>
      <point x="299" y="122"/>
      <point x="259" y="91"/>
      <point x="200" y="91" type="curve" smooth="yes"/>
      <point x="158" y="91"/>
      <point x="119" y="116"/>
      <point x="114" y="167" type="curve"/>
      <point x="17" y="151" type="line"/>
      <point x="23" y="77"/>
      <point x="70" y="19"/>
      <point x="139" y="4" type="curve"/>
      <point x="107" y="-54" type="line"/>
      <point x="140" y="-98" type="line"/>
      <point x="146" y="-93"/>
      <point x="157" y="-90"/>
      <point x="164" y="-90" type="curve" smooth="yes"/>
      <point x="182" y="-90"/>
      <point x="191" y="-97"/>
      <point x="191" y="-110" type="curve" smooth="yes"/>
      <point x="191" y="-128"/>
      <point x="175" y="-139"/>
      <point x="158" y="-139" type="curve" smooth="yes"/>
      <point x="144" y="-139"/>
      <point x="133" y="-132"/>
      <point x="129" y="-123" type="curve"/>
      <point x="78" y="-157" type="line"/>
      <point x="95" y="-186"/>
      <point x="115" y="-196"/>
      <point x="146" y="-196" type="curve" smooth="yes"/>
      <point x="204" y="-196"/>
      <point x="260" y="-159"/>
      <point x="260" y="-94" type="curve" smooth="yes"/>
      <point x="260" y="-54"/>
      <point x="229" y="-37"/>
      <point x="184" y="-33" type="curve"/>
      <point x="193" y="0" type="line"/>
      <point x="192" y="0" type="line"/>
      <point x="256" y="5"/>
      <point x="398" y="46"/>
      <point x="398" y="184" type="curve" smooth="yes"/>
      <point x="398" y="242"/>
      <point x="354" y="283"/>
      <point x="263" y="310" type="curve" smooth="yes"/>
      <point x="215" y="324"/>
      <point x="190" y="338"/>
      <point x="190" y="360" type="curve" smooth="yes"/>
      <point x="190" y="386"/>
      <point x="217" y="417"/>
      <point x="287" y="417" type="curve" smooth="yes"/>
      <point x="316" y="417"/>
      <point x="351" y="407"/>
      <point x="351" y="380" type="curve" smooth="yes"/>
      <point x="351" y="375"/>
      <point x="350" y="357"/>
      <point x="333" y="329" type="curve"/>
      <point x="430" y="347" type="line"/>
      <point x="443" y="374"/>
      <point x="445" y="394"/>
      <point x="445" y="410" type="curve" smooth="yes"/>
      <point x="445" y="488"/>
      <point x="366" y="505"/>
      <point x="287" y="505" type="curve" smooth="yes"/>
      <point x="233" y="505"/>
      <point x="90" y="473"/>
      <point x="90" y="338" type="curve" smooth="yes"/>
      <point x="90" y="268"/>
      <point x="157" y="237"/>
    </contour>
  </outline>
</glyph>
<glyph name="uni0162" format="1">
  <advance width="548"/>
  <unicode hex="0162"/>
  <outline>
    <contour>
      <point x="151" y="-5" type="line"/>
      <point x="255" y="12" type="line"/>
      <point x="376" y="582" type="line"/>
      <point x="590" y="582" type="line"/>
      <point x="611" y="681" type="line"/>
      <point x="98" y="681" type="line"/>
      <point x="77" y="582" type="line"/>
      <point x="276" y="582" type="line"/>
    </contour>
    <contour>
      <point x="200" y="-16" type="line"/>
      <point x="95" y="-95" type="line"/>
      <point x="134" y="-119" type="line"/>
      <point x="66" y="-198" type="line"/>
      <point x="143" y="-247" type="line"/>
      <point x="291" y="-62" type="line"/>
    </contour>
  </outline>
</glyph>
<glyph name="uring" format="1">
  <advance width="541"/>
  <unicode hex="016F"/>
  <outline>
    <contour>
      <point x="162" y="286" type="curve" smooth="yes"/>
      <point x="152" y="238"/>
      <point x="142" y="189"/>
      <point x="142" y="152" type="curve" smooth="yes"/>
      <point x="142" y="112"/>
      <point x="153" y="85"/>
      <point x="189" y="85" type="curve" smooth="yes"/>
      <point x="244" y="85"/>
      <point x="306" y="125"/>
      <point x="328" y="143" type="curve" smooth="yes"/>
      <point x="333" y="147"/>
      <point x="336" y="155"/>
      <point x="339" y="167" type="curve" smooth="yes"/>
      <point x="408" y="491" type="line"/>
      <point x="510" y="508" type="line"/>
      <point x="405" y="12" type="line"/>
      <point x="300" y="-4" type="line"/>
      <point x="308" y="36" type="line"/>
      <point x="269" y="14"/>
      <point x="216" y="-5"/>
      <point x="166" y="-5" type="curve" smooth="yes"/>
      <point x="70" y="-5"/>
      <point x="43" y="48"/>
      <point x="43" y="121" type="curve" smooth="yes"/>
      <point x="43" y="170"/>
      <point x="55" y="229"/>
      <point x="67" y="286" type="curve" smooth="yes"/>
      <point x="76" y="328"/>
      <point x="100" y="418"/>
      <point x="128" y="492" type="curve"/>
      <point x="231" y="509" type="line"/>
      <point x="223" y="488"/>
      <point x="178" y="359"/>
    </contour>
    <contour>
      <point x="331" y="542" type="curve" smooth="yes"/>
      <point x="264" y="542"/>
      <point x="223" y="580"/>
      <point x="223" y="632" type="curve" smooth="yes"/>
      <point x="223" y="713"/>
      <point x="311" y="782"/>
      <point x="401" y="782" type="curve" smooth="yes"/>
      <point x="470" y="782"/>
      <point x="507" y="740"/>
      <point x="507" y="690" type="curve" smooth="yes"/>
      <point x="507" y="592"/>
      <point x="404" y="542"/>
    </contour>
    <contour>
      <point x="380" y="697" type="curve" smooth="yes"/>
      <point x="356" y="697"/>
      <point x="311" y="680"/>
      <point x="311" y="650" type="curve" smooth="yes"/>
      <point x="311" y="636"/>
      <point x="328" y="626"/>
      <point x="351" y="626" type="curve" smooth="yes"/>
      <point x="380" y="626"/>
      <point x="421" y="645"/>
      <point x="421" y="670" type="curve" smooth="yes"/>
      <point x="421" y="685"/>
      <point x="404" y="697"/>
    </contour>
  </outline>
</glyph>
<glyph name="Uhungarumlaut" format="1">
  <advance width="710"/>
  <unicode hex="0170"/>
  <outline>
    <contour>
      <point x="288" y="0" type="curve" smooth="yes"/>
      <point x="548" y="0"/>
      <point x="620" y="240"/>
      <point x="668" y="467" type="curve" smooth="yes"/>
      <point x="682" y="536"/>
      <point x="707" y="662"/>
      <point x="711" y="685" type="curve"/>
      <point x="608" y="666" type="line"/>
      <point x="602" y="633"/>
      <point x="576" y="502"/>
      <point x="560" y="425" type="curve" smooth="yes"/>
      <point x="528" y="276"/>
      <point x="476" y="92"/>
      <point x="307" y="92" type="curve" smooth="yes"/>
      <point x="206" y="92"/>
      <point x="174" y="157"/>
      <point x="174" y="249" type="curve" smooth="yes"/>
      <point x="174" y="364"/>
      <point x="236" y="606"/>
      <point x="255" y="685" type="curve"/>
      <point x="152" y="668" type="line"/>
      <point x="129" y="562"/>
      <point x="73" y="346"/>
      <point x="73" y="226" type="curve" smooth="yes"/>
      <point x="73" y="89"/>
      <point x="126" y="0"/>
    </contour>
    <contour>
      <point x="240" y="772" type="line"/>
      <point x="299" y="710" type="line"/>
      <point x="505" y="831" type="line"/>
      <point x="445" y="906" type="line"/>
    </contour>
    <contour>
      <point x="459" y="772" type="line"/>
      <point x="508" y="710" type="line"/>
      <point x="725" y="831" type="line"/>
      <point x="664" y="906" type="line"/>
    </contour>
  </outline>
</glyph>
<glyph name="uhungarumlaut" format="1">
  <advance width="564"/>
  <unicode hex="0171"/>
  <outline>
    <contour>
      <point x="127" y="597" type="line"/>
      <point x="187" y="535" type="line"/>
      <point x="393" y="656" type="line"/>
      <point x="333" y="731" type="line"/>
    </contour>
    <contour>
      <point x="346" y="597" type="line"/>
      <point x="396" y="535" type="line"/>
      <point x="613" y="656" type="line"/>
      <point x="552" y="731" type="line"/>
    </contour>
    <contour>
      <point x="162" y="286" type="curve" smooth="yes"/>
      <point x="178" y="359"/>
      <point x="223" y="488"/>
      <point x="231" y="509" type="curve"/>
      <point x="128" y="492" type="line"/>
      <point x="100" y="418"/>
      <point x="76" y="328"/>
      <point x="67" y="286" type="curve" smooth="yes"/>
      <point x="55" y="229"/>
      <point x="43" y="170"/>
      <point x="43" y="121" type="curve" smooth="yes"/>
      <point x="43" y="48"/>
      <point x="70" y="-5"/>
      <point x="166" y="-5" type="curve" smooth="yes"/>
      <point x="216" y="-5"/>
      <point x="269" y="14"/>
      <point x="308" y="36" type="curve"/>
      <point x="300" y="-4" type="line"/>
      <point x="405" y="12" type="line"/>
      <point x="510" y="508" type="line"/>
      <point x="408" y="491" type="line"/>
      <point x="339" y="167" type="line" smooth="yes"/>
      <point x="336" y="155"/>
      <point x="333" y="147"/>
      <point x="328" y="143" type="curve" smooth="yes"/>
      <point x="306" y="125"/>
      <point x="244" y="85"/>
      <point x="189" y="85" type="curve" smooth="yes"/>
      <point x="153" y="85"/>
      <point x="142" y="112"/>
      <point x="142" y="152" type="curve" smooth="yes"/>
      <point x="142" y="189"/>
      <point x="152" y="238"/>
    </contour>
  </outline>
</glyph>
<glyph name="zacute" format="1">
  <advance width="479"/>
  <unicode hex="017A"/>
  <outline>
    <contour>
      <point x="356" y="0" type="line"/>
      <point x="0" y="0" type="line"/>
      <point x="-19" y="68" type="line"/>
      <point x="322" y="406" type="line"/>
      <point x="73" y="406" type="line"/>
      <point x="110" y="502" type="line"/>
      <point x="453" y="502" type="line"/>
      <point x="471" y="435" type="line"/>
      <point x="131" y="96" type="line"/>
      <point x="393" y="96" type="line"/>
    </contour>
    <contour>
      <point x="184" y="600" type="line"/>
      <point x="385" y="731" type="line"/>
      <point x="454" y="658" type="line"/>
      <point x="242" y="540" type="line"/>
    </contour>
  </outline>
</glyph>
<glyph name="Zdotaccent" format="1">
  <advance width="647"/>
  <unicode hex="017B"/>
  <outline>
    <contour>
      <point x="22" y="0" type="line"/>
      <point x="2" y="77" type="line"/>
      <point x="509" y="578" type="line"/>
      <point x="137" y="578" type="line"/>
      <point x="176" y="681" type="line"/>
      <point x="636" y="681" type="line"/>
      <point x="656" y="603" type="line"/>
      <point x="148" y="103" type="line"/>
      <point x="540" y="103" type="line"/>
      <point x="502" y="0" type="line"/>
    </contour>
    <contour>
      <point x="499" y="834" type="line"/>
      <point x="463" y="720" type="line"/>
      <point x="341" y="704" type="line"/>
      <point x="380" y="819" type="line"/>
    </contour>
  </outline>
</glyph>
<glyph name="zdotaccent" format="1">
  <advance width="479"/>
  <unicode hex="017C"/>
  <outline>
    <contour>
      <point x="390" y="672" type="line"/>
      <point x="275" y="658" type="line"/>
      <point x="238" y="546" type="line"/>
      <point x="356" y="561" type="line"/>
    </contour>
    <contour>
      <point x="356" y="0" type="line"/>
      <point x="393" y="96" type="line"/>
      <point x="131" y="96" type="line"/>
      <point x="471" y="435" type="line"/>
      <point x="453" y="502" type="line"/>
      <point x="110" y="502" type="line"/>
      <point x="73" y="406" type="line"/>
      <point x="322" y="406" type="line"/>
      <point x="-19" y="68" type="line"/>
      <point x="0" y="0" type="line"/>
    </contour>
  </outline>
</glyph>
<glyph name="zcaron" format="1">
  <advance width="479"/>
  <unicode hex="017E"/>
  <outline>
    <contour>
      <point x="447" y="732" type="line"/>
      <point x="322" y="649" type="line"/>
      <point x="251" y="732" type="line"/>
      <point x="172" y="662" type="line"/>
      <point x="290" y="522" type="line"/>
      <point x="488" y="657" type="line"/>
    </contour>
    <contour>
      <point x="356" y="0" type="line"/>
      <point x="393" y="96" type="line"/>
      <point x="131" y="96" type="line"/>
      <point x="471" y="435" type="line"/>
      <point x="453" y="502" type="line"/>
      <point x="110" y="502" type="line"/>
      <point x="73" y="406" type="line"/>
      <point x="322" y="406" type="line"/>
      <point x="-19" y="68" type="line"/>
      <point x="0" y="0" type="line"/>
    </contour>
  </outline>
</glyph>
<glyph name="caron" format="1">
  <advance width="526"/>
  <unicode hex="02C7"/>
  <outline>
    <contour>
      <point x="447" y="702" type="line"/>
      <point x="321" y="619" type="line"/>
      <point x="250" y="702" type="line"/>
      <point x="171" y="632" type="line"/>
      <point x="290" y="492" type="line"/>
      <point x="488" y="627" type="line"/>
    </contour>
  </outline>
</glyph>
<glyph name="breve" format="1">
  <advance width="526"/>
  <unicode hex="02D8"/>
  <outline>
    <contour>
      <point x="322" y="596" type="curve" smooth="yes"/>
      <point x="295" y="596"/>
      <point x="263" y="609"/>
      <point x="240" y="678" type="curve"/>
      <point x="167" y="617" type="line"/>
      <point x="182" y="552"/>
      <point x="235" y="508"/>
      <point x="308" y="508" type="curve" smooth="yes"/>
      <point x="375" y="508"/>
      <point x="451" y="555"/>
      <point x="489" y="622" type="curve"/>
      <point x="438" y="686" type="line"/>
      <point x="405" y="629"/>
      <point x="368" y="596"/>
    </contour>
  </outline>
</glyph>
<glyph name="dotaccent" format="1">
  <advance width="526"/>
  <unicode hex="02D9"/>
  <outline>
    <contour>
      <point x="392" y="630" type="line"/>
      <point x="277" y="616" type="line"/>
      <point x="238" y="494" type="line"/>
      <point x="356" y="509" type="line"/>
    </contour>
  </outline>
</glyph>
<glyph name="ogonek" format="1">
  <advance width="526"/>
  <unicode hex="02DB"/>
  <outline>
    <contour>
      <point x="383" y="18" type="line"/>
      <point x="290" y="-34" type="line" smooth="yes"/>
      <point x="271" y="-45"/>
      <point x="238" y="-64"/>
      <point x="237" y="-91" type="curve" smooth="yes"/>
      <point x="237" y="-103"/>
      <point x="248" y="-112"/>
      <point x="261" y="-112" type="curve" smooth="yes"/>
      <point x="282" y="-112"/>
      <point x="307" y="-98"/>
      <point x="340" y="-75" type="curve"/>
      <point x="379" y="-131" type="line"/>
      <point x="346" y="-164"/>
      <point x="288" y="-196"/>
      <point x="243" y="-196" type="curve" smooth="yes"/>
      <point x="184" y="-196"/>
      <point x="143" y="-170"/>
      <point x="143" y="-119" type="curve" smooth="yes"/>
      <point x="143" y="-37"/>
      <point x="215" y="0"/>
      <point x="272" y="30" type="curve" smooth="yes"/>
      <point x="357" y="74" type="line"/>
    </contour>
  </outline>
</glyph>
<glyph name="hungarumlaut" format="1">
  <advance width="526"/>
  <unicode hex="02DD"/>
  <outline>
    <contour>
      <point x="87" y="570" type="line"/>
      <point x="145" y="510" type="line"/>
      <point x="347" y="638" type="line"/>
      <point x="289" y="711" type="line"/>
    </contour>
    <contour>
      <point x="302" y="570" type="line"/>
      <point x="351" y="510" type="line"/>
      <point x="564" y="638" type="line"/>
      <point x="505" y="711" type="line"/>
    </contour>
  </outline>
</glyph>
<glyph name="endash" format="1">
  <advance width="622"/>
  <unicode hex="2013"/>
  <outline>
    <contour>
      <point x="502" y="202" type="line"/>
      <point x="540" y="296" type="line"/>
      <point x="87" y="296" type="line"/>
      <point x="51" y="202" type="line"/>
    </contour>
  </outline>
</glyph>
<glyph name="emdash" format="1">
  <advance width="903"/>
  <unicode hex="2014"/>
  <outline>
    <contour>
      <point x="765" y="202" type="line"/>
      <point x="803" y="298" type="line"/>
      <point x="95" y="298" type="line"/>
      <point x="57" y="202" type="line"/>
    </contour>
  </outline>
</glyph>
<glyph name="quoteleft" format="1">
  <advance width="208"/>
  <unicode hex="2018"/>
  <outline>
    <contour>
      <point x="152" y="489" type="line"/>
      <point x="256" y="577" type="line"/>
      <point x="218" y="600" type="line"/>
      <point x="286" y="687" type="line"/>
      <point x="212" y="735" type="line"/>
      <point x="64" y="545" type="line"/>
    </contour>
  </outline>
</glyph>
<glyph name="guilsinglleft" format="1">
  <advance width="430"/>
  <unicode hex="2039"/>
  <outline>
    <contour>
      <point x="230" y="49" type="line"/>
      <point x="51" y="251" type="line"/>
      <point x="334" y="455" type="line"/>
      <point x="380" y="384" type="line"/>
      <point x="193" y="248" type="line"/>
      <point x="309" y="119" type="line"/>
    </contour>
  </outline>
</glyph>
<glyph name="guilsinglright" format="1">
  <advance width="430"/>
  <unicode hex="203A"/>
  <outline>
    <contour>
      <point x="94" y="51" type="line"/>
      <point x="359" y="253" type="line"/>
      <point x="163" y="457" type="line"/>
      <point x="87" y="386" type="line"/>
      <point x="215" y="252" type="line"/>
      <point x="43" y="121" type="line"/>
    </contour>
  </outline>
</glyph>
<glyph name=".notdef" format="1">
  <advance width="526"/>
  <outline>
    <contour>
      <point x="15" y="681" type="line"/>
      <point x="15" y="0" type="line"/>
      <point x="492" y="0" type="line"/>
      <point x="492" y="681" type="line"/>
    </contour>
    <contour>
      <point x="202" y="342" type="line"/>
      <point x="99" y="183" type="line"/>
      <point x="99" y="511" type="line"/>
    </contour>
    <contour>
      <point x="143" y="597" type="line"/>
      <point x="369" y="597" type="line"/>
      <point x="253" y="418" type="line"/>
    </contour>
    <contour>
      <point x="251" y="263" type="line"/>
      <point x="361" y="84" type="line"/>
      <point x="135" y="84" type="line"/>
    </contour>
    <contour>
      <point x="301" y="339" type="line"/>
      <point x="408" y="502" type="line"/>
      <point x="408" y="167" type="line"/>
    </contour>
  </outline>
</glyph>
